<svg width="122" height="122" viewBox="0 0 122 122" fill="none" xmlns="http://www.w3.org/2000/svg">
<circle cx="60.5005" cy="60.4993" r="52.5" fill="#E2231A"/>
<path fill-rule="evenodd" clip-rule="evenodd" d="M60.8626 105.62C79.8876 105.62 96.0896 93.7266 102.559 76.9846H19.1606C25.6306 93.7266 41.8316 105.62 60.8626 105.62ZM60.8626 16.1052C41.8316 16.1052 25.6306 27.9962 19.1606 44.7402H102.559C96.0896 27.9962 79.8886 16.1052 60.8626 16.1052Z" fill="white"/>
<path fill-rule="evenodd" clip-rule="evenodd" d="M110.101 60.859V60.863V60.876C110.101 62.266 110.013 63.635 109.887 64.996C109.84 65.536 109.794 66.075 109.734 66.613C109.643 67.388 109.517 68.156 109.383 68.924C105.529 92.267 85.3 110.092 60.863 110.092C36.428 110.092 16.197 92.267 12.341 68.924C12.21 68.156 12.085 67.388 11.991 66.613C11.925 66.075 11.877 65.536 11.832 64.996C11.714 63.635 11.627 62.266 11.627 60.876V60.863V60.859V60.856C11.627 59.453 11.714 58.073 11.832 56.703C11.877 56.179 11.925 55.654 11.986 55.136C12.112 54.13 12.257 53.13 12.443 52.141C12.616 51.197 12.813 50.263 13.038 49.338C13.038 49.323 13.038 49.313 13.046 49.303C18.254 27.702 37.662 11.632 60.863 11.632C84.067 11.632 103.471 27.702 108.678 49.303C108.678 49.313 108.678 49.323 108.687 49.338C108.907 50.263 109.109 51.197 109.285 52.141C109.462 53.13 109.616 54.13 109.743 55.136C109.803 55.654 109.84 56.179 109.887 56.703C110.013 58.073 110.101 59.453 110.101 60.856V60.859ZM118.933 57.335C117.461 55.765 116.87 54.376 116.504 52.096C116.127 49.711 116.552 47.478 117.323 46.09L119.239 43.577L119.246 43.57L118.256 40.542V40.539L115 39.563C113.114 38.524 112.12 37.388 111.077 35.331C109.977 33.177 109.691 30.925 109.997 29.365L111.039 26.383L111.044 26.378L109.167 23.8L105.769 23.875C103.799 23.5 102.539 22.79 101.06 21.385C100.954 21.278 100.84 21.178 100.729 21.065C99.024 19.357 98.048 17.3 97.856 15.728L97.927 12.566V12.56L95.354 10.689L92.143 11.81C90.006 12.08 88.534 11.741 86.476 10.695C84.327 9.597 82.768 7.942 82.099 6.508L81.19 3.48V3.47L78.156 2.485L75.449 4.548C73.505 5.463 72 5.594 69.723 5.236C67.335 4.856 65.347 3.764 64.263 2.607L62.457 0.007V0H59.276L57.335 2.796C55.762 4.271 54.377 4.861 52.094 5.219C49.714 5.599 47.479 5.174 46.092 4.409L43.578 2.492L43.569 2.485L40.545 3.47L39.627 6.522C39.051 8.134 37.4 9.6 35.249 10.695C33.3 11.687 31.222 12.098 29.736 11.864L26.387 10.689H26.378L23.797 12.56L23.872 15.755C23.825 17.461 22.703 19.364 21.007 21.065C20.893 21.171 20.78 21.271 20.667 21.374C19.193 22.748 17.496 23.663 16.116 23.881L12.567 23.8H12.56L10.689 26.378L11.743 29.386C12.22 31.027 11.748 33.187 10.656 35.331C9.658 37.277 8.219 38.837 6.887 39.516L3.468 40.542L2.488 43.57L4.417 46.105C5.387 47.515 5.599 49.718 5.221 52.096C4.882 54.252 3.995 56.172 2.93 57.241L0 59.271V62.457L2.622 64.272C3.974 65.314 4.862 67.342 5.233 69.718C5.58 71.875 5.327 73.974 4.649 75.316L2.488 78.158L3.468 81.186L6.52 82.102C8.134 82.675 9.6 84.331 10.694 86.477C11.691 88.421 12.102 90.501 11.87 91.98L10.689 95.351L12.56 97.925V97.929L12.567 97.925L15.737 97.855C17.421 97.895 19.299 98.993 20.991 100.655C21.019 100.679 21.038 100.703 21.064 100.729C22.612 102.275 23.647 104.126 23.884 105.609L23.806 109.168L26.378 111.037L29.377 109.987C31.016 109.502 33.178 109.981 35.33 111.077C37.279 112.064 38.832 113.504 39.515 114.837L40.545 118.255L43.569 119.244L43.578 119.237L46.098 117.318C47.502 116.342 49.714 116.132 52.094 116.509C54.258 116.846 56.182 117.738 57.246 118.798L59.276 121.725H62.457V121.717L64.263 119.116C65.297 117.756 67.335 116.868 69.723 116.49C71.879 116.15 73.983 116.403 75.318 117.08L78.156 119.244L81.19 118.255V118.248L82.164 115.005C83.199 113.113 84.34 112.117 86.398 111.077C88.546 109.981 90.796 109.692 92.356 109.987L95.354 111.037L97.927 109.168V109.163L97.848 105.774C98.253 103.658 99.036 102.361 100.668 100.725C100.689 100.703 100.714 100.679 100.743 100.655C102.433 98.998 104.451 98.048 105.996 97.855L109.167 97.925L111.044 95.351L111.039 95.346L109.919 92.143C109.65 90.008 109.989 88.53 111.032 86.477C112.132 84.327 113.787 82.769 115.218 82.098L118.256 81.186L119.246 78.158L119.239 78.153L117.181 75.454C116.266 73.503 116.134 71.997 116.492 69.718C116.87 67.337 117.964 65.342 119.119 64.261L121.728 62.457V59.271V59.268L118.933 57.335Z" fill="white"/>
<path d="M43.2568 33.0439C43.4737 33.044 43.6828 33.0879 43.8896 33.1738C44.0905 33.2608 44.266 33.3794 44.418 33.5303C44.5659 33.6782 44.6845 33.8539 44.7715 34.0537C44.8575 34.2557 44.9023 34.4684 44.9023 34.6914C44.9023 35.1533 44.7362 35.5461 44.4043 35.8711C44.7362 36.193 44.9022 36.5859 44.9023 37.0537C44.9023 37.2767 44.8575 37.4895 44.7715 37.6895C44.6845 37.8914 44.5659 38.0669 44.418 38.2148C44.266 38.3658 44.0925 38.4833 43.8906 38.5703C43.6898 38.6573 43.4797 38.7021 43.2568 38.7021H40.1914V33.0439H43.2568ZM49.5879 38.7021H48.6514V33.0449H49.5879V38.7021ZM57.1006 33.9912H54.2734V35.4072H57.1006V36.3447H54.2734V37.7539H57.1006V38.7021H53.3369V33.0439H57.1006V33.9912ZM63.6807 33.0439C64.1946 33.044 64.6398 33.2296 65.0078 33.5996C65.3755 33.9674 65.5604 34.4111 65.5605 34.9277C65.5605 35.3177 65.4495 35.6731 65.2285 35.9951C65.0105 36.3111 64.7315 36.5359 64.3975 36.6709L65.5605 38.7021H64.4766L63.3857 36.8174H61.79V38.7021H60.8516V33.0439H63.6807ZM73.0752 33.9912H70.249V35.4072H73.0752V36.3447H70.249V37.7539H73.0752V38.7021H69.3076V33.0439H73.0752V33.9912ZM81.5361 38.7021L77.7627 35.3115V38.6924H76.8252V33.0371L80.5898 36.4268V33.0371H81.5361V38.7021ZM41.1289 37.7539H43.2568C43.3487 37.7539 43.4405 37.7391 43.5254 37.7031C43.6104 37.6661 43.688 37.6178 43.751 37.5498C43.817 37.4868 43.8663 37.4102 43.9033 37.3242C43.9383 37.2374 43.956 37.1485 43.9561 37.0547C43.9561 36.9617 43.9383 36.8712 43.9033 36.7852C43.8664 36.6994 43.8196 36.6225 43.7568 36.5586C43.6948 36.4936 43.6193 36.4413 43.5312 36.4023C43.4454 36.3664 43.3536 36.3458 43.2568 36.3457H41.1289V37.7539ZM61.7891 35.8643L63.6797 35.8721C63.9336 35.8721 64.1559 35.7796 64.3389 35.5957C64.5239 35.4117 64.6162 35.1867 64.6162 34.9277C64.6162 34.6727 64.5239 34.4526 64.3389 34.2656C64.1559 34.0827 63.9336 33.9912 63.6797 33.9912H61.7891V35.8643ZM41.1289 35.4072H43.2568C43.3487 35.4072 43.4395 35.3895 43.5244 35.3496C43.6092 35.3127 43.6881 35.2611 43.751 35.1963C43.816 35.1323 43.8663 35.0558 43.9033 34.9668C43.9382 34.882 43.956 34.7882 43.9561 34.6914C43.9561 34.5994 43.9383 34.5089 43.9033 34.4219C43.8663 34.3359 43.8159 34.2583 43.751 34.1953C43.688 34.1303 43.6094 34.0789 43.5244 34.0439C43.4395 34.008 43.3487 33.9913 43.2568 33.9912H41.1289V35.4072Z" fill="#E2231A"/>
<path d="M53.8604 52.9365C56.362 52.9367 57.6113 54.1886 57.6113 56.6904V67.1963C57.6112 69.695 56.362 70.9471 53.8604 70.9473C51.3584 70.9473 50.1095 69.6951 50.1094 67.1963V56.6904C50.1094 54.1884 51.3584 52.9365 53.8604 52.9365ZM90.0586 52.9365C92.5593 52.9367 93.8096 54.1886 93.8096 56.6904V57.3154H91.3105V56.6904C91.3105 55.8576 90.8913 55.4386 90.0586 55.4385C89.2256 55.4385 88.8086 55.8574 88.8086 56.6904V67.1963C88.8087 68.0281 89.2257 68.4453 90.0586 68.4453C90.8912 68.4452 91.3105 68.028 91.3105 67.1963V66.5684H93.8096V67.1963C93.8095 69.695 92.5592 70.9471 90.0586 70.9473C87.5567 70.9473 86.3067 69.6951 86.3066 67.1963V56.6904C86.3066 54.1884 87.5566 52.9365 90.0586 52.9365ZM22.4883 53.1885C24.987 53.1886 26.2393 54.4396 26.2393 56.9395V66.9453C26.2391 69.445 24.9869 70.6981 22.4883 70.6982H18.7344V53.1885H22.4883ZM34.5508 55.6895H30.7959V60.6924H33.9248V63.1924H30.7959V68.1963H34.5508V70.6982H28.2979V53.1885H34.5508V55.6895ZM43.5195 59.3145L45.8975 50.7783H48.5234L45.8223 60.7383L48.5234 70.6982H45.8975L43.5195 62.1602V70.6982H41.0215V50.7783H43.5195V59.3145ZM65.582 63.1924V53.1885H68.084V70.6982H65.582L62.4561 60.6924V70.6982H59.9541V53.1885H62.4561L65.582 63.1924ZM73.1133 70.6982H70.6133V53.1885H73.1133V70.6982ZM81.2744 63.1924V53.1885H83.7754V70.6982H81.2744L78.1484 60.6924V70.6982H75.6475V53.1885H78.1484L81.2744 63.1924ZM97.9873 53.1885V60.6924L100.366 53.1885H102.991L100.29 61.9424L102.991 70.6982H100.366L97.9873 63.1924V70.6982H95.4893V53.1885H97.9873ZM53.8604 55.4385C53.0274 55.4385 52.6104 55.8574 52.6104 56.6904V67.1963C52.6104 68.0281 53.0274 68.4453 53.8604 68.4453C54.692 68.4452 55.1122 68.028 55.1123 67.1963V56.6904C55.1123 55.8576 54.692 55.4386 53.8604 55.4385ZM21.2363 68.1963H22.4883C23.3209 68.1962 23.7372 67.779 23.7373 66.9453V56.9395C23.7373 56.1066 23.321 55.6896 22.4883 55.6895H21.2363V68.1963Z" fill="white"/>
</svg>
