<svg width="47" height="93" viewBox="0 0 47 93" fill="none" xmlns="http://www.w3.org/2000/svg">
<path d="M41.168 0C44.1975 0 46.6493 2.55098 46.6494 5.70117L46.6484 55.04C46.6484 56.0582 46.3881 57.0578 45.8945 57.9316L28.0527 89.5059C25.9319 93.2566 20.7169 93.2566 18.5957 89.5059L0.754883 57.9316C0.262083 57.0578 0 56.0582 0 55.04V5.70117C0.000143454 2.55098 2.45153 0 5.48145 0H41.168ZM6.85547 3.0127C4.63316 3.0127 2.82925 4.89072 2.8291 7.20703V53.5654C2.82911 54.6793 3.25047 55.7471 4.00684 56.5322L20.4756 73.6592C22.0476 75.2986 24.6017 75.2986 26.1729 73.6592L42.6377 56.5322C43.3964 55.7471 43.8203 54.6792 43.8203 53.5654V7.20703C43.8202 4.89072 42.016 3.0127 39.7881 3.0127H6.85547ZM30.2939 33.5498L33.3564 27.3574H36.0469L32.5977 34.4639L36.6328 44.7285H33.6768L31.04 37.6914L30.2939 39.2432V44.7285H27.7637V27.3574H30.2939V33.5498ZM36.3311 10.8887L35.9336 11.3711L9.05859 44.0088L8.66113 44.4912L7.69629 43.6973L8.09375 43.2148L34.9688 10.5762L35.3662 10.0938L36.3311 10.8887ZM14.0312 9.41309C15.1319 9.41309 16.0661 9.81939 16.834 10.6318C17.6018 11.4444 17.9862 12.4189 17.9863 13.5547V22.6289C17.9863 23.7739 17.6003 24.7528 16.8281 25.5654C16.0558 26.3781 15.1232 26.7842 14.0312 26.7842H10.0762V9.41309H14.0312ZM12.5928 24.1943H14.1113C14.5107 24.1943 14.8479 24.0441 15.123 23.7441C15.3982 23.4441 15.536 23.0907 15.5361 22.6846V13.5967C15.5361 13.1811 15.3959 12.8258 15.1162 12.5303C14.8366 12.2348 14.5019 12.087 14.1113 12.0869H12.5928V24.1943Z" fill="white"/>
</svg>
