<svg width="71" height="72" viewBox="0 0 71 72" fill="none" xmlns="http://www.w3.org/2000/svg">
<path d="M70.8281 1.40332L70.126 2.11621L2.12598 71.1162L1.4248 71.8281L0 70.4248L0.702148 69.7119L68.7021 0.711914L69.4033 0L70.8281 1.40332ZM49.4619 54.4385L54.3633 44.9141H58.667L53.1484 55.8447L59.6045 71.6328H54.874L50.6553 60.8086L49.4619 63.1953V71.6328H45.4141V44.9141H49.4619V54.4385ZM18.2422 0.914062C20.0036 0.914062 21.4988 1.53906 22.7275 2.78906C23.9561 4.03904 24.5703 5.53806 24.5703 7.28516V21.2412C24.5702 23.0023 23.9524 24.5079 22.7168 25.7578C21.481 27.0078 19.9893 27.6328 18.2422 27.6328H11.9141V0.914062H18.2422ZM15.9414 23.6484H18.3701C19.0092 23.6484 19.549 23.4176 19.9893 22.9561C20.4296 22.4944 20.6494 21.9511 20.6494 21.3262V7.34863C20.6494 6.70947 20.4259 6.16253 19.9785 5.70801C19.5311 5.25357 18.995 5.02639 18.3701 5.02637H15.9414V23.6484Z" fill="white"/>
</svg>
