<svg width="20" height="63" viewBox="0 0 20 63" fill="none" xmlns="http://www.w3.org/2000/svg">
<path d="M13.916 44C16.806 44.0002 19.1607 46.2979 19.0537 49.1172V57.4707C19.0536 60.29 16.6987 62.5869 13.8086 62.5869H5.24512C2.35502 62.5869 0.000111517 60.29 0 57.4707V49.1172C0 46.2978 2.35533 44 5.35254 44H13.916ZM5.24512 45.6709C3.21145 45.6709 1.60571 47.3413 1.60547 49.2207V57.5752C1.60562 59.5591 3.31843 61.125 5.24512 61.125H13.8086C15.8423 61.125 17.4481 59.4547 17.4482 57.5752V49.2207C17.448 47.2369 15.7352 45.6709 13.8086 45.6709H5.24512Z" fill="white"/>
<path d="M9.63428 48.4902C12.3103 48.4903 14.5577 50.6835 14.4507 53.3984C14.4505 56.0088 12.2028 58.2011 9.52686 58.2011C6.85096 58.201 4.60323 56.0087 4.60303 53.3984C4.60303 50.6834 6.85116 48.4902 9.63428 48.4902ZM9.63428 50.2656C7.92159 50.2656 6.42236 51.6232 6.42236 53.3984C6.42256 55.069 7.81467 56.5312 9.63428 56.5312C11.3468 56.5311 12.845 55.0689 12.8452 53.3984C12.8452 51.7277 11.3469 50.2657 9.63428 50.2656Z" fill="white"/>
<path d="M14.7717 47.1327C14.4506 47.1327 14.1295 47.2371 13.9154 47.446C13.7013 47.6548 13.5942 47.9681 13.5942 48.2813C13.5942 48.5946 13.7013 48.9079 13.9154 49.1167C14.1295 49.3256 14.4506 49.43 14.7717 49.43C15.0928 49.43 15.414 49.3256 15.6281 49.1167C15.8421 48.9079 15.9492 48.5946 15.9492 48.2813C15.9492 47.9681 15.8421 47.6548 15.6281 47.446C15.414 47.2371 15.0928 47.1327 14.7717 47.1327Z" fill="white"/>
<path fill-rule="evenodd" clip-rule="evenodd" d="M10.4483 5.79643V3.93852C10.4483 3.24078 10.9076 3.07811 11.2311 3.07811C11.5539 3.07811 13.2167 3.07811 13.2167 3.07811V0.0107458L10.4821 0C7.44643 0 6.7556 2.28774 6.7556 3.75176V5.79643H5V8.95717H6.7556C6.7556 13.0135 6.7556 17.901 6.7556 17.901H10.4483C10.4483 17.901 10.4483 12.9653 10.4483 8.95717H12.94L13.262 5.79643H10.4483Z" fill="white"/>
</svg>
