<svg width="71" height="132" viewBox="0 0 71 132" fill="none" xmlns="http://www.w3.org/2000/svg">
<path fill-rule="evenodd" clip-rule="evenodd" d="M67.3973 88.1907C66.9753 91.7652 66.412 95.3253 65.6342 98.8407C64.921 102.064 63.9992 105.236 62.998 108.38C62.4602 110.07 61.8952 111.75 61.3086 113.423C60.9959 114.315 60.677 115.204 60.353 116.091C60.1841 116.553 60.0036 117.012 59.8414 117.476C59.6942 117.899 59.6564 118.342 59.6592 118.787C59.6718 120.69 59.679 122.595 59.6867 124.499C59.6906 125.455 59.6954 126.41 59.6989 127.365C59.7009 127.831 59.7366 128.311 59.7021 128.775C59.6995 128.809 59.6979 128.924 59.6774 128.957C59.6418 129.014 59.6827 128.97 59.6296 129.002C59.5717 129.038 59.3986 129.004 59.3332 129.004C59.1987 129.005 59.0645 129.005 58.9302 129.006C55.0244 129.023 51.119 129.041 47.2133 129.061C43.2883 129.081 39.3636 129.1 35.4386 129.119C34.4692 129.124 33.5 129.128 32.5309 129.133C32.0459 129.135 31.5611 129.137 31.0763 129.14C30.8337 129.141 30.5913 129.142 30.3487 129.143C30.3182 129.143 30.1738 129.166 30.141 129.143C30.1053 129.12 30.1179 129.013 30.1153 128.963C30.0146 127.093 29.9192 125.223 29.7882 123.355C29.6623 121.559 29.5055 119.763 29.2449 117.98C28.9983 116.291 28.6909 114.588 28.1069 112.979C27.505 111.322 26.6416 109.77 25.6275 108.331C24.5188 106.758 23.3669 105.215 22.2202 103.67C19.934 100.59 17.6255 97.5281 15.3133 94.4682C14.3278 93.1637 13.3298 91.8715 12.5346 90.4388C11.7785 89.0764 11.1728 87.6348 10.6702 86.1612C9.55118 82.8797 8.94895 79.4574 8.63021 76.0115C8.45363 74.1042 8.1272 72.217 7.85403 70.3221C7.57539 68.387 7.29695 66.4519 7.0175 64.517C6.48533 60.8325 5.94952 57.1488 5.41532 53.4647C5.30496 52.7033 5.195 51.9421 5.08504 51.1807C5.03503 50.8359 4.98521 50.4908 4.93519 50.1458C4.91575 50.0109 4.89854 49.8758 4.88437 49.74C4.87991 49.6974 4.84326 49.5844 4.86229 49.5433C4.87505 49.5162 4.88659 49.5346 4.91798 49.5162C4.9925 49.4718 5.15551 49.4658 5.24077 49.4512C5.34971 49.4326 5.45906 49.4168 5.56902 49.4042C8.60328 49.0579 11.5053 50.5925 13.4912 52.7892C15.7521 55.2903 17.1291 58.4973 18.4156 61.5735C19.7679 64.8066 20.8942 68.1308 21.8691 71.4962C22.3996 73.327 22.8716 75.1727 23.3366 77.021C23.4536 77.4869 23.5709 77.9527 23.6891 78.4182C23.7438 78.6343 23.7989 78.8499 23.8544 79.0656C23.9151 79.3019 23.9499 79.5775 24.0496 79.8001C24.132 79.9843 24.2869 80.0182 24.4635 80.0803C24.6781 80.1561 24.8918 80.2346 25.1044 80.3158C25.5049 80.4691 25.9018 80.6321 26.2945 80.8037C29.4124 82.1675 32.25 84.0852 34.9161 86.1833C35.5423 86.6762 36.1601 87.1794 36.7722 87.6891C36.8972 87.793 37.0628 87.9979 37.2129 88.0578C37.3 88.0924 37.2643 88.1016 37.335 88.0248C37.3743 87.9823 37.4136 87.9396 37.4528 87.8968C37.5164 87.8278 37.5802 87.7585 37.6438 87.6893C37.9463 87.3604 38.2481 87.0309 38.5496 86.7015C36.6386 85.127 34.7363 83.5639 32.6763 82.1847C30.9109 81.0029 29.0612 79.9416 27.1154 79.085C26.9054 78.9927 26.6944 78.9026 26.4822 78.8149C26.2546 78.7209 25.9563 78.6578 25.7862 78.4709C25.6141 78.2821 25.5845 78.0063 25.5209 77.7686C25.4369 77.4555 25.3531 77.1423 25.2684 76.8294C24.943 75.6259 24.6176 74.4223 24.3343 73.2081C24.194 72.6065 24.0771 72.0273 24.0767 71.4069C24.0761 70.8038 24.1223 70.2 24.1462 69.5975C24.1952 68.3608 24.2424 67.1244 24.3001 65.8881C24.4185 63.3548 24.6391 60.841 24.9161 58.3209C25.1749 55.9676 25.3535 53.6055 25.5165 51.2437C25.8328 46.6626 26.0065 42.0705 26.1991 37.4826C26.3984 32.7366 26.5701 27.9896 26.7392 23.2424C26.7835 21.9942 26.8309 20.7464 26.8749 19.4982C26.9188 18.2514 26.951 16.9904 27.1225 15.7532C27.2584 14.7737 27.6103 13.831 28.1836 13.0229C28.7806 12.1813 29.6017 11.4278 30.6322 11.1917C32.6763 10.7235 34.3487 12.4544 35.0725 14.1866C35.4866 15.1777 35.6589 16.2544 35.7049 17.3225C35.7583 18.5673 35.7282 19.8188 35.7306 21.0643C35.7369 24.3564 35.7379 27.6484 35.7429 30.9405C35.7488 34.9358 35.7652 38.9311 35.781 42.9262C35.7885 44.8164 35.7968 46.7063 35.8045 48.5962C35.8067 49.1689 35.8092 49.7416 35.8114 50.3142C35.8118 50.4062 35.7788 50.8013 35.8298 50.847C35.8456 50.8612 35.9317 50.847 35.9543 50.847H36.3403H37.706C37.7058 49.8908 37.7054 48.9346 37.705 47.9782C37.7041 45.9562 37.7031 43.9341 37.7023 41.9121C37.7017 40.0424 37.7009 38.173 37.7001 36.3033C37.6995 34.6322 37.6975 32.961 37.6948 31.2898C37.6886 27.3244 37.6847 23.3589 37.6701 19.3935C37.6636 17.5639 37.6442 15.7347 37.6282 13.9052C37.6122 12.0494 37.4865 10.0994 38.2618 8.36374C38.91 6.91222 40.2251 5.44551 41.9253 5.41129C43.6698 5.37626 44.9773 6.87172 45.6577 8.33175C46.4657 10.066 46.3669 11.98 46.4003 13.8464C46.438 15.9587 46.4694 18.0712 46.5001 20.1837C46.5394 22.8935 46.5838 25.6032 46.6293 28.313C46.7018 32.6228 46.7715 36.9326 46.8411 41.2427C46.8758 43.3867 46.9145 45.5306 46.9535 47.6747C46.99 49.6541 46.9876 51.6388 47.0641 53.6172C47.0688 53.7397 47.0463 53.73 47.1263 53.7559C47.1919 53.777 47.3037 53.7559 47.3713 53.7559H48.1242H48.7957C48.8182 53.7559 48.9089 53.7701 48.9291 53.7559C48.981 53.7191 48.9372 53.2211 48.938 53.1411C48.9583 51.0058 48.8781 48.8656 48.8412 46.7304C48.7955 44.0645 48.7491 41.3988 48.7011 38.7331C48.629 34.7284 48.5513 30.724 48.4842 26.7194C48.4632 25.4788 48.4433 24.2383 48.4223 22.998C48.404 21.9355 48.3844 20.8732 48.3615 19.8111C48.3396 18.788 48.2886 17.7624 48.303 16.7389C48.3303 14.8304 48.8234 12.937 50.1804 11.53C50.7859 10.9021 51.5337 10.4088 52.4174 10.3081C53.2926 10.2083 54.1463 10.5171 54.8263 11.0614C55.4978 11.5991 56.0429 12.3176 56.4149 13.0911C56.8074 13.9078 56.9641 14.7676 57.0358 15.6641C57.2055 17.7778 57.2233 19.9032 57.3015 22.0216C57.3979 24.6451 57.4939 27.2689 57.5763 29.8929C57.7101 34.1594 57.8272 38.4265 57.9568 42.693C58.0503 45.774 58.1388 48.8552 58.2324 51.9363C58.2939 53.9639 58.364 55.9899 58.364 58.0186H59.3186H59.9563C60.0201 58.0186 60.1033 58.0329 60.1659 58.0186C60.2517 57.9987 60.2161 58.0659 60.2337 57.939C60.2631 57.7247 60.2359 57.4834 60.2377 57.2667C60.2394 57.0358 60.2412 56.8052 60.242 56.5745C60.2434 56.1319 60.2371 55.6894 60.2248 55.2467C60.1985 54.3039 60.1713 53.3609 60.1436 52.418C60.0322 48.6511 59.9127 44.8842 59.8001 41.1171C59.6888 37.3901 59.5794 33.6631 59.447 29.9369C59.4172 29.0977 59.3856 28.2549 59.4543 27.4168C59.5221 26.5904 59.7137 25.7984 60.0286 25.0315C60.5751 23.7009 61.7229 22.1422 63.3392 22.2577C64.7916 22.3613 65.8913 23.8473 66.3865 25.0929C66.6878 25.8508 66.8153 26.6511 66.8994 27.4585C66.9919 28.3493 67.0272 29.2445 67.0571 30.1392C67.1815 33.8405 67.2941 37.5418 67.3992 41.2437C67.5049 44.982 67.6025 48.7204 67.7217 52.4583C67.8412 56.2058 67.9538 59.9534 68.0548 63.7015C68.1549 67.4042 68.2962 71.1061 68.2687 74.8107C68.2422 78.365 68.0376 81.9162 67.692 85.4533C67.6029 86.3667 67.5042 87.2792 67.3973 88.1907ZM70.2787 69.7304C70.2119 66.4322 70.0969 63.1339 69.9861 59.8368C69.8557 55.9425 69.7611 52.0468 69.641 48.1522C69.5128 43.9938 69.3954 39.8351 69.2731 35.6765C69.2125 33.6216 69.1441 31.5664 69.1109 29.5106C69.0949 28.5293 69.0835 27.5443 68.9303 26.5727C68.7917 25.6929 68.5309 24.8205 68.1719 24.0052C67.5383 22.5673 66.4675 21.2543 65.0147 20.5905C63.4192 19.8615 61.6318 20.1665 60.2772 21.248C59.9917 21.476 59.7287 21.7279 59.4425 21.9555C59.3028 21.2348 59.3299 20.4779 59.3036 19.7442C59.2744 18.9233 59.2489 18.102 59.2125 17.2814C59.1448 15.7615 59.0495 14.2417 58.5102 12.8038C57.5797 10.3219 55.2352 8.00876 52.4182 8.22179C51.6451 8.28031 50.8634 8.49861 50.1848 8.87688C49.4965 9.26061 48.9259 9.8023 48.3797 10.363C48.0464 9.04333 47.7654 7.73052 47.0568 6.54853C46.3487 5.36735 45.2868 4.33561 44.0219 3.76922C42.5935 3.12952 40.9749 3.1923 39.5965 3.93345C38.4611 4.54378 37.5089 5.48844 36.8585 6.59835C36.0548 7.96968 35.7972 9.49268 35.5064 11.0317C34.7335 10.3167 33.9676 9.66217 32.9533 9.31772C31.9274 8.96942 30.8076 8.95646 29.7755 9.28755C27.904 9.88816 26.4417 11.5256 25.6874 13.2972C24.7654 15.4636 24.8644 17.8551 24.7707 20.1606C24.665 22.7558 24.5821 25.3521 24.4845 27.9475C24.3531 31.4506 24.21 34.953 24.0725 38.4556C23.9254 42.2029 23.7487 45.9481 23.5818 49.6944C23.3728 54.3908 22.6102 59.0347 22.3081 63.7222C22.2894 64.0111 22.3119 64.3459 22.2404 64.6263C22.2001 64.7839 22.1038 64.9368 22.042 65.0884C21.7407 64.4139 21.5035 63.7175 21.2435 63.0262C20.9074 62.1324 20.5548 61.2448 20.1828 60.3653C19.501 58.7538 18.7538 57.1695 17.9252 55.6281C17.1129 54.117 16.2045 52.6513 15.042 51.3816C13.9132 50.1488 12.5484 49.1272 11.0428 48.3996C9.47848 47.6435 7.75582 47.2502 6.01614 47.3249C5.04535 47.3667 4.08247 47.5461 3.1538 47.8296C2.83972 47.9254 2.56756 48.0381 2.58052 48.4103C2.59733 48.8844 2.71964 49.3728 2.79173 49.8414C3.40166 53.7975 3.94679 57.7634 4.52594 61.7241C5.05588 65.3474 5.57995 68.972 6.09248 72.598C6.27514 73.8889 6.47419 75.1784 6.62789 76.473C6.74554 77.4622 6.82594 78.4555 6.95311 79.4437C7.06813 80.3361 7.24066 81.2172 7.43708 82.0952C7.8358 83.876 8.29852 85.6588 8.88091 87.389C9.42138 88.9946 10.1089 90.5569 11.01 91.994C11.4966 92.7704 12.0494 93.5053 12.5901 94.2446C13.183 95.0556 13.784 95.8612 14.3889 96.6635C15.4863 98.1186 16.5984 99.5627 17.7026 101.013C19.8795 103.872 22.0714 106.723 24.0644 109.715C24.9948 111.112 25.7554 112.586 26.2874 114.18C26.853 115.874 27.1472 117.627 27.3422 119.398C27.7314 122.932 27.9147 126.475 28.0297 130.028C28.0372 130.262 28.0449 130.497 28.0524 130.731C28.0577 130.891 28.0281 131.131 28.1875 131.222C28.2928 131.283 28.4535 131.257 28.5673 131.251C28.8128 131.241 29.0582 131.231 29.3038 131.224C29.7913 131.208 30.2787 131.198 30.7661 131.193C32.813 131.174 34.86 131.17 36.9071 131.161C39.7083 131.147 42.5097 131.134 45.3109 131.121C46.9803 131.113 48.6497 131.101 50.3191 131.098C52.3544 131.094 54.3897 131.094 56.4251 131.092C57.441 131.091 58.457 131.09 59.4727 131.088C59.9806 131.087 60.4884 131.087 60.9963 131.086C61.228 131.086 61.4592 131.088 61.6903 131.073C61.7087 131.072 61.799 131.079 61.8114 131.066C61.8476 131.026 61.8138 130.763 61.8126 130.714C61.7666 128.688 61.7419 126.664 61.7385 124.637C61.7366 123.632 61.7358 122.627 61.7354 121.622C61.7352 121.123 61.735 120.624 61.735 120.126C61.735 119.643 61.7071 119.15 61.7401 118.669C61.7719 118.206 61.9509 117.773 62.1101 117.343C62.282 116.878 62.4628 116.416 62.6293 115.95C62.783 115.519 62.9255 115.085 63.0725 114.653C63.7197 112.749 64.3661 110.845 64.9791 108.931C65.5831 107.043 66.1675 105.147 66.6845 103.233C67.2118 101.281 67.6387 99.3053 68.0212 97.3202C68.7393 93.5934 69.327 89.8564 69.718 86.0804C70.0796 82.5899 70.2878 79.0684 70.3478 75.5595C70.381 73.6159 70.3127 71.6733 70.2787 69.7304Z" fill="black"/>
<path fill-rule="evenodd" clip-rule="evenodd" d="M65.8973 85.9407C65.4753 89.5152 64.912 93.0753 64.1342 96.5907C63.421 99.8139 62.4992 102.986 61.498 106.13C60.9602 107.82 60.3952 109.5 59.8086 111.173C59.4959 112.065 59.177 112.954 58.853 113.841C58.6841 114.303 58.5036 114.762 58.3414 115.226C58.1942 115.649 58.1564 116.092 58.1592 116.537C58.1718 118.44 58.179 120.345 58.1867 122.249C58.1906 123.205 58.1954 124.16 58.1989 125.115C58.2009 125.581 58.2366 126.061 58.2021 126.525C58.1995 126.559 58.1979 126.674 58.1774 126.707C58.1418 126.764 58.1827 126.72 58.1296 126.752C58.0717 126.788 57.8986 126.754 57.8332 126.754C57.6987 126.755 57.5645 126.755 57.4302 126.756C53.5244 126.773 49.619 126.791 45.7133 126.811C41.7883 126.831 37.8636 126.85 33.9386 126.869C32.9692 126.874 32 126.878 31.0309 126.883C30.5459 126.885 30.0611 126.887 29.5763 126.89C29.3337 126.891 29.0913 126.892 28.8487 126.893C28.8182 126.893 28.6738 126.916 28.641 126.893C28.6053 126.87 28.6179 126.763 28.6153 126.713C28.5146 124.843 28.4192 122.973 28.2882 121.105C28.1623 119.309 28.0055 117.513 27.7449 115.73C27.4983 114.041 27.1909 112.338 26.6069 110.729C26.005 109.072 25.1416 107.52 24.1275 106.081C23.0188 104.508 21.8669 102.965 20.7202 101.42C18.434 98.3403 16.1255 95.2781 13.8133 92.2182C12.8278 90.9137 11.8298 89.6215 11.0346 88.1888C10.2785 86.8264 9.6728 85.3848 9.17019 83.9112C8.05118 80.6297 7.44895 77.2074 7.13021 73.7615C6.95363 71.8542 6.6272 69.967 6.35403 68.0721C6.07539 66.137 5.79695 64.2019 5.5175 62.267C4.98533 58.5825 4.44952 54.8988 3.91532 51.2147C3.80496 50.4533 3.695 49.6921 3.58504 48.9307C3.53503 48.5859 3.48521 48.2408 3.43519 47.8958C3.41575 47.7609 3.39854 47.6258 3.38437 47.49C3.37991 47.4474 3.34326 47.3344 3.36229 47.2933C3.37505 47.2662 3.38659 47.2846 3.41798 47.2662C3.4925 47.2218 3.65551 47.2158 3.74077 47.2012C3.84971 47.1826 3.95906 47.1668 4.06902 47.1542C7.10328 46.8079 10.0053 48.3425 11.9912 50.5392C14.2521 53.0403 15.6291 56.2473 16.9156 59.3235C18.2679 62.5566 19.3942 65.8808 20.3691 69.2462C20.8996 71.077 21.3716 72.9227 21.8366 74.771C21.9536 75.2369 22.0709 75.7027 22.1891 76.1682C22.2438 76.3843 22.2989 76.5999 22.3544 76.8156C22.4151 77.0519 22.4499 77.3275 22.5496 77.5501C22.632 77.7343 22.7869 77.7682 22.9635 77.8303C23.1781 77.9061 23.3918 77.9846 23.6044 78.0658C24.0049 78.2191 24.4018 78.3821 24.7945 78.5537C27.9124 79.9175 30.75 81.8352 33.4161 83.9333C34.0423 84.4262 34.6601 84.9294 35.2722 85.4391C35.3972 85.543 35.5628 85.7479 35.7129 85.8078C35.8 85.8424 35.7643 85.8516 35.835 85.7748C35.8743 85.7323 35.9136 85.6896 35.9528 85.6468C36.0164 85.5778 36.0802 85.5085 36.1438 85.4393C36.4463 85.1104 36.7481 84.7809 37.0496 84.4515C35.1386 82.877 33.2363 81.3139 31.1763 79.9347C29.4109 78.7529 27.5612 77.6916 25.6154 76.835C25.4054 76.7427 25.1944 76.6526 24.9822 76.5649C24.7546 76.4709 24.4563 76.4078 24.2862 76.2209C24.1141 76.0321 24.0845 75.7563 24.0209 75.5186C23.9369 75.2055 23.8531 74.8923 23.7684 74.5794C23.443 73.3759 23.1176 72.1723 22.8343 70.9581C22.694 70.3565 22.5771 69.7773 22.5767 69.1569C22.5761 68.5538 22.6223 67.95 22.6462 67.3475C22.6952 66.1108 22.7424 64.8744 22.8001 63.6381C22.9185 61.1048 23.1391 58.591 23.4161 56.0709C23.6749 53.7176 23.8535 51.3555 24.0165 48.9937C24.3328 44.4126 24.5065 39.8205 24.6991 35.2326C24.8984 30.4866 25.0701 25.7396 25.2392 20.9924C25.2835 19.7442 25.3309 18.4964 25.3749 17.2482C25.4188 16.0014 25.451 14.7404 25.6225 13.5032C25.7584 12.5237 26.1103 11.581 26.6836 10.7729C27.2806 9.93127 28.1017 9.17777 29.1322 8.94165C31.1763 8.47347 32.8487 10.2044 33.5725 11.9366C33.9866 12.9277 34.1589 14.0044 34.2049 15.0725C34.2583 16.3173 34.2282 17.5688 34.2306 18.8143C34.2369 22.1064 34.2379 25.3984 34.2429 28.6905C34.2488 32.6858 34.2652 36.6811 34.281 40.6762C34.2885 42.5664 34.2968 44.4563 34.3045 46.3462C34.3067 46.9189 34.3092 47.4916 34.3114 48.0642C34.3118 48.1562 34.2788 48.5513 34.3298 48.597C34.3456 48.6112 34.4317 48.597 34.4543 48.597H34.8403H36.206C36.2058 47.6408 36.2054 46.6846 36.205 45.7282C36.2041 43.7062 36.2031 41.6841 36.2023 39.6621C36.2017 37.7924 36.2009 35.923 36.2001 34.0533C36.1995 32.3822 36.1975 30.711 36.1948 29.0398C36.1886 25.0744 36.1847 21.1089 36.1701 17.1435C36.1636 15.3139 36.1442 13.4847 36.1282 11.6552C36.1122 9.79944 35.9865 7.84937 36.7618 6.11374C37.41 4.66222 38.7251 3.19551 40.4253 3.16129C42.1698 3.12626 43.4773 4.62172 44.1577 6.08175C44.9657 7.81596 44.8669 9.72999 44.9003 11.5964C44.938 13.7087 44.9694 15.8212 45.0001 17.9337C45.0394 20.6435 45.0838 23.3532 45.1293 26.063C45.2018 30.3728 45.2715 34.6826 45.3411 38.9927C45.3758 41.1367 45.4145 43.2806 45.4535 45.4247C45.49 47.4041 45.4876 49.3888 45.5641 51.3672C45.5688 51.4897 45.5463 51.48 45.6263 51.5059C45.6919 51.527 45.8037 51.5059 45.8713 51.5059H46.6242H47.2957C47.3182 51.5059 47.4089 51.5201 47.4291 51.5059C47.481 51.4691 47.4372 50.9711 47.438 50.8911C47.4583 48.7558 47.3781 46.6156 47.3412 44.4804C47.2955 41.8145 47.2491 39.1488 47.2011 36.4831C47.129 32.4784 47.0513 28.474 46.9842 24.4694C46.9632 23.2288 46.9433 21.9883 46.9223 20.748C46.904 19.6855 46.8844 18.6232 46.8615 17.5611C46.8396 16.538 46.7886 15.5124 46.803 14.4889C46.8303 12.5804 47.3234 10.687 48.6804 9.28003C49.2859 8.65208 50.0337 8.15879 50.9174 8.05815C51.7926 7.95831 52.6463 8.26713 53.3263 8.81145C53.9978 9.34908 54.5429 10.0676 54.9149 10.8411C55.3074 11.6578 55.4641 12.5176 55.5358 13.4141C55.7055 15.5278 55.7233 17.6532 55.8015 19.7716C55.8979 22.3951 55.9939 25.0189 56.0763 27.6429C56.2101 31.9094 56.3272 36.1765 56.4568 40.443C56.5503 43.524 56.6388 46.6052 56.7324 49.6863C56.7939 51.7139 56.864 53.7399 56.864 55.7686H57.8186H58.4563C58.5201 55.7686 58.6033 55.7829 58.6659 55.7686C58.7517 55.7487 58.7161 55.8159 58.7337 55.689C58.7631 55.4747 58.7359 55.2334 58.7377 55.0167C58.7394 54.7858 58.7412 54.5552 58.742 54.3245C58.7434 53.8819 58.7371 53.4394 58.7248 52.9967C58.6985 52.0539 58.6713 51.1109 58.6436 50.168C58.5322 46.4011 58.4127 42.6342 58.3001 38.8671C58.1888 35.1401 58.0794 31.4131 57.947 27.6869C57.9172 26.8477 57.8856 26.0049 57.9543 25.1668C58.0221 24.3404 58.2137 23.5484 58.5286 22.7815C59.0751 21.4509 60.2229 19.8922 61.8392 20.0077C63.2916 20.1113 64.3913 21.5973 64.8865 22.8429C65.1878 23.6008 65.3153 24.4011 65.3994 25.2085C65.4919 26.0993 65.5272 26.9945 65.5571 27.8892C65.6815 31.5905 65.7941 35.2918 65.8992 38.9937C66.0049 42.732 66.1025 46.4704 66.2217 50.2083C66.3412 53.9558 66.4538 57.7034 66.5548 61.4515C66.6549 65.1542 66.7962 68.8561 66.7687 72.5607C66.7422 76.115 66.5376 79.6662 66.192 83.2033C66.1029 84.1167 66.0042 85.0292 65.8973 85.9407ZM68.7787 67.4804C68.7119 64.1822 68.5969 60.8839 68.4861 57.5868C68.3557 53.6925 68.2611 49.7968 68.141 45.9022C68.0128 41.7438 67.8954 37.5851 67.7731 33.4265C67.7125 31.3716 67.6441 29.3164 67.6109 27.2606C67.5949 26.2793 67.5835 25.2943 67.4303 24.3227C67.2917 23.4429 67.0309 22.5705 66.6719 21.7552C66.0383 20.3173 64.9675 19.0043 63.5147 18.3405C61.9192 17.6115 60.1318 17.9165 58.7772 18.998C58.4917 19.226 58.2287 19.4779 57.9425 19.7055C57.8028 18.9848 57.8299 18.2279 57.8036 17.4942C57.7744 16.6733 57.7489 15.852 57.7125 15.0314C57.6448 13.5115 57.5495 11.9917 57.0102 10.5538C56.0797 8.07192 53.7352 5.75876 50.9182 5.97179C50.1451 6.03031 49.3634 6.24861 48.6848 6.62688C47.9965 7.01061 47.4259 7.5523 46.8797 8.11302C46.5464 6.79333 46.2654 5.48052 45.5568 4.29853C44.8487 3.11735 43.7868 2.08561 42.5219 1.51922C41.0935 0.879521 39.4749 0.942295 38.0965 1.68345C36.9611 2.29378 36.0089 3.23844 35.3585 4.34835C34.5548 5.71968 34.2972 7.24268 34.0064 8.78168C33.2335 8.06665 32.4676 7.41217 31.4533 7.06772C30.4274 6.71942 29.3076 6.70646 28.2755 7.03755C26.404 7.63816 24.9417 9.27558 24.1874 11.0472C23.2654 13.2136 23.3644 15.6051 23.2707 17.9106C23.165 20.5058 23.0821 23.1021 22.9845 25.6975C22.8531 29.2006 22.71 32.703 22.5725 36.2056C22.4254 39.9529 22.2487 43.6981 22.0818 47.4444C21.8728 52.1408 21.1102 56.7847 20.8081 61.4722C20.7894 61.7611 20.8119 62.0959 20.7404 62.3763C20.7001 62.5339 20.6038 62.6868 20.542 62.8384C20.2407 62.1639 20.0035 61.4675 19.7435 60.7762C19.4074 59.8824 19.0548 58.9948 18.6828 58.1153C18.001 56.5038 17.2538 54.9195 16.4252 53.3781C15.6129 51.867 14.7045 50.4013 13.542 49.1316C12.4132 47.8988 11.0484 46.8772 9.5428 46.1496C7.97848 45.3935 6.25582 45.0002 4.51614 45.0749C3.54535 45.1167 2.58247 45.2961 1.6538 45.5796C1.33972 45.6754 1.06756 45.7881 1.08052 46.1603C1.09733 46.6344 1.21964 47.1228 1.29173 47.5914C1.90166 51.5475 2.44679 55.5134 3.02594 59.4741C3.55588 63.0974 4.07995 66.722 4.59248 70.348C4.77514 71.6389 4.97419 72.9284 5.12789 74.223C5.24554 75.2122 5.32594 76.2055 5.45311 77.1937C5.56813 78.0861 5.74066 78.9672 5.93708 79.8452C6.3358 81.626 6.79852 83.4088 7.38091 85.139C7.92138 86.7446 8.60887 88.3069 9.50999 89.744C9.9966 90.5204 10.5494 91.2553 11.0901 91.9946C11.683 92.8056 12.284 93.6112 12.8889 94.4135C13.9863 95.8686 15.0984 97.3127 16.2026 98.7626C18.3795 101.622 20.5714 104.473 22.5644 107.465C23.4948 108.862 24.2554 110.336 24.7874 111.93C25.353 113.624 25.6472 115.377 25.8422 117.148C26.2314 120.682 26.4147 124.225 26.5297 127.778C26.5372 128.012 26.5449 128.247 26.5524 128.481C26.5577 128.641 26.5281 128.881 26.6875 128.972C26.7928 129.033 26.9535 129.007 27.0673 129.001C27.3128 128.991 27.5582 128.981 27.8038 128.974C28.2913 128.958 28.7787 128.948 29.2661 128.943C31.313 128.924 33.36 128.92 35.4071 128.911C38.2083 128.897 41.0097 128.884 43.8109 128.871C45.4803 128.863 47.1497 128.851 48.8191 128.848C50.8544 128.844 52.8897 128.844 54.9251 128.842C55.941 128.841 56.957 128.84 57.9727 128.838C58.4806 128.837 58.9884 128.837 59.4963 128.836C59.728 128.836 59.9592 128.838 60.1903 128.823C60.2087 128.822 60.299 128.829 60.3114 128.816C60.3476 128.776 60.3138 128.513 60.3126 128.464C60.2666 126.438 60.2419 124.414 60.2385 122.387C60.2366 121.382 60.2358 120.377 60.2354 119.372C60.2352 118.873 60.235 118.374 60.235 117.876C60.235 117.393 60.2071 116.9 60.2401 116.419C60.2719 115.956 60.4509 115.523 60.6101 115.093C60.782 114.628 60.9628 114.166 61.1293 113.7C61.283 113.269 61.4255 112.835 61.5725 112.403C62.2197 110.499 62.8661 108.595 63.4791 106.681C64.0831 104.793 64.6675 102.897 65.1845 100.983C65.7118 99.0313 66.1387 97.0553 66.5212 95.0702C67.2393 91.3434 67.827 87.6064 68.218 83.8304C68.5796 80.3399 68.7878 76.8184 68.8478 73.3095C68.881 71.3659 68.8127 69.4233 68.7787 67.4804Z" fill="white"/>
<path d="M64.1342 96.5907L65.1887 96.8241V96.8241L64.1342 96.5907ZM61.498 106.13L60.4689 105.803L60.4689 105.803L61.498 106.13ZM59.8086 111.173L58.7894 110.816L58.7894 110.816L59.8086 111.173ZM58.853 113.841L59.8673 114.212L59.8675 114.212L58.853 113.841ZM58.3414 115.226L57.3219 114.87L57.3216 114.871L58.3414 115.226ZM58.1592 116.537L57.0792 116.544L57.0792 116.544L58.1592 116.537ZM58.1867 122.249L59.2667 122.245V122.245L58.1867 122.249ZM58.1989 125.115L57.1189 125.119L57.1189 125.12L58.1989 125.115ZM58.2021 126.525L59.2788 126.61L59.2792 126.605L58.2021 126.525ZM58.1774 126.707L59.0927 127.28L59.0939 127.278L58.1774 126.707ZM58.1296 126.752L58.691 127.675L58.6925 127.674L58.1296 126.752ZM57.8332 126.754L57.8381 127.834L57.8399 127.834L57.8332 126.754ZM57.4302 126.756L57.4351 127.836H57.4351L57.4302 126.756ZM45.7133 126.811L45.7079 125.731H45.7079L45.7133 126.811ZM33.9386 126.869L33.9334 125.789L33.9332 125.789L33.9386 126.869ZM31.0309 126.883L31.0354 127.963H31.0361L31.0309 126.883ZM29.5763 126.89L29.5714 125.81L29.5709 125.81L29.5763 126.89ZM28.8487 126.893V127.973L28.8532 127.973L28.8487 126.893ZM28.641 126.893L29.2439 125.997L29.2353 125.992L28.641 126.893ZM28.6153 126.713L29.6938 126.656L29.6937 126.655L28.6153 126.713ZM28.2882 121.105L27.2109 121.181L27.2109 121.181L28.2882 121.105ZM27.7449 115.73L26.6762 115.886L26.6763 115.886L27.7449 115.73ZM26.6069 110.729L27.622 110.361L27.622 110.361L26.6069 110.729ZM24.1275 106.081L25.0102 105.459L25.0102 105.459L24.1275 106.081ZM20.7202 101.42L21.5874 100.776L21.5874 100.776L20.7202 101.42ZM13.8133 92.2182L12.9516 92.8692L12.9516 92.8692L13.8133 92.2182ZM11.0346 88.1888L10.0903 88.7129L10.0903 88.713L11.0346 88.1888ZM9.17019 83.9112L8.14799 84.2598L8.14802 84.2598L9.17019 83.9112ZM7.13021 73.7615L8.20562 73.662L8.20561 73.6619L7.13021 73.7615ZM6.35403 68.0721L5.28505 68.226L5.28508 68.2262L6.35403 68.0721ZM5.5175 62.267L6.58641 62.1126L6.58641 62.1126L5.5175 62.267ZM3.91532 51.2147L2.84649 51.3697L2.8465 51.3697L3.91532 51.2147ZM3.58504 48.9307L4.65395 48.7764L4.65386 48.7757L3.58504 48.9307ZM3.43519 47.8958L2.36624 48.0499L2.36636 48.0507L3.43519 47.8958ZM3.38437 47.49L4.45854 47.3779L4.45849 47.3774L3.38437 47.49ZM3.36229 47.2933L2.38491 46.8338L2.38226 46.8395L3.36229 47.2933ZM3.41798 47.2662L3.96478 48.1976L3.97029 48.1943L3.41798 47.2662ZM3.74077 47.2012L3.55872 46.1366L3.55871 46.1366L3.74077 47.2012ZM4.06902 47.1542L3.94656 46.0812L3.9465 46.0812L4.06902 47.1542ZM11.9912 50.5392L12.7924 49.815L12.7924 49.8149L11.9912 50.5392ZM16.9156 59.3235L15.9192 59.7401L15.9193 59.7402L16.9156 59.3235ZM20.3691 69.2462L19.3317 69.5466L19.3317 69.5468L20.3691 69.2462ZM21.8366 74.771L22.884 74.5078L22.8839 74.5075L21.8366 74.771ZM22.1891 76.1682L23.2361 75.9033L23.2359 75.9023L22.1891 76.1682ZM22.3544 76.8156L23.4004 76.5467L23.4003 76.5465L22.3544 76.8156ZM22.5496 77.5501L23.5355 77.1091L23.5353 77.1088L22.5496 77.5501ZM22.9635 77.8303L23.3228 76.8119L23.3221 76.8116L22.9635 77.8303ZM23.6044 78.0658L23.9904 77.0572L23.9897 77.0569L23.6044 78.0658ZM24.7945 78.5537L25.2273 77.5642L25.2268 77.564L24.7945 78.5537ZM33.4161 83.9333L34.0842 83.0847L34.084 83.0846L33.4161 83.9333ZM35.2722 85.4391L34.5812 86.269L34.5818 86.2695L35.2722 85.4391ZM35.7129 85.8078L35.3122 86.8108L35.3138 86.8114L35.7129 85.8078ZM35.835 85.7748L35.0417 85.0419L35.0405 85.0432L35.835 85.7748ZM35.9528 85.6468L35.1584 84.9153L35.1578 84.9159L35.9528 85.6468ZM36.1438 85.4393L35.349 84.7081L35.3483 84.7089L36.1438 85.4393ZM37.0496 84.4515L37.8463 85.1806L38.6144 84.3413L37.7363 83.6179L37.0496 84.4515ZM31.1763 79.9347L31.7771 79.0373L31.7771 79.0372L31.1763 79.9347ZM25.6154 76.835L26.0506 75.8466L26.0502 75.8464L25.6154 76.835ZM24.9822 76.5649L25.3946 75.5667L25.3943 75.5666L24.9822 76.5649ZM24.2862 76.2209L25.085 75.4939L25.0842 75.4931L24.2862 76.2209ZM24.0209 75.5186L25.0643 75.2395L25.064 75.2386L24.0209 75.5186ZM23.7684 74.5794L22.7259 74.8613L22.7259 74.8615L23.7684 74.5794ZM22.8343 70.9581L21.7825 71.2034L21.7825 71.2035L22.8343 70.9581ZM22.5767 69.1569L23.6567 69.1561V69.1558L22.5767 69.1569ZM22.6462 67.3475L23.7253 67.3903L23.7253 67.3903L22.6462 67.3475ZM22.8001 63.6381L21.7212 63.5877L21.7212 63.5878L22.8001 63.6381ZM23.4161 56.0709L22.3425 55.9528L22.3425 55.9529L23.4161 56.0709ZM24.0165 48.9937L22.939 48.9193L22.939 48.9194L24.0165 48.9937ZM24.6991 35.2326L23.6201 35.1873V35.1873L24.6991 35.2326ZM25.2392 20.9924L26.3185 21.0309L26.3185 21.0308L25.2392 20.9924ZM25.3749 17.2482L24.2955 17.2102L24.2955 17.2102L25.3749 17.2482ZM25.6225 13.5032L24.5528 13.3548L24.5527 13.3549L25.6225 13.5032ZM26.6836 10.7729L27.5645 11.3977L27.5645 11.3977L26.6836 10.7729ZM29.1322 8.94165L28.8911 7.88891L28.891 7.88893L29.1322 8.94165ZM33.5725 11.9366L32.5759 12.353L32.576 12.353L33.5725 11.9366ZM34.2049 15.0725L35.2839 15.0262L35.2839 15.0261L34.2049 15.0725ZM34.2306 18.8143L35.3106 18.8123V18.8122L34.2306 18.8143ZM34.2429 28.6905L35.3229 28.6889V28.6888L34.2429 28.6905ZM34.281 40.6762L33.201 40.6805V40.6805L34.281 40.6762ZM34.3045 46.3462L35.3845 46.342V46.3418L34.3045 46.3462ZM34.3114 48.0642L33.2314 48.0684L33.2314 48.069L34.3114 48.0642ZM34.3298 48.597L35.0512 47.7932L35.0509 47.793L34.3298 48.597ZM36.206 48.597V49.677H37.2862L37.286 48.5968L36.206 48.597ZM36.205 45.7282L35.125 45.7286V45.7287L36.205 45.7282ZM36.2023 39.6621L35.1223 39.6625V39.6625L36.2023 39.6621ZM36.2001 34.0533L35.1201 34.0537V34.0537L36.2001 34.0533ZM36.1948 29.0398L37.2748 29.0381V29.0381L36.1948 29.0398ZM36.1701 17.1435L35.0901 17.1473V17.1475L36.1701 17.1435ZM36.1282 11.6552L35.0483 11.6645V11.6646L36.1282 11.6552ZM36.7618 6.11374L37.7479 6.55426L37.748 6.55412L36.7618 6.11374ZM40.4253 3.16129L40.4036 2.08151L40.4035 2.08151L40.4253 3.16129ZM44.1577 6.08175L45.1367 5.62564L45.1367 5.62555L44.1577 6.08175ZM44.9003 11.5964L45.9801 11.5772L45.9801 11.5771L44.9003 11.5964ZM45.0001 17.9337L46.08 17.918L46.08 17.9179L45.0001 17.9337ZM45.1293 26.063L44.0495 26.0812L44.0495 26.0812L45.1293 26.063ZM45.3411 38.9927L46.421 38.9752V38.9752L45.3411 38.9927ZM45.4535 45.4247L44.3737 45.4443L44.3737 45.4445L45.4535 45.4247ZM45.5641 51.3672L46.6433 51.3262L46.6433 51.3255L45.5641 51.3672ZM45.6263 51.5059L45.2933 52.5333L45.2962 52.5343L45.6263 51.5059ZM47.4291 51.5059L48.0485 52.3907L48.0549 52.3862L47.4291 51.5059ZM47.438 50.8911L48.518 50.9021L48.518 50.9014L47.438 50.8911ZM47.3412 44.4804L46.2614 44.4989L46.2614 44.499L47.3412 44.4804ZM47.2011 36.4831L46.1213 36.5025L47.2011 36.4831ZM46.9842 24.4694L48.0641 24.4513L48.0641 24.451L46.9842 24.4694ZM46.9223 20.748L48.0021 20.7297L48.0021 20.7295L46.9223 20.748ZM46.8615 17.5611L45.7818 17.5841L45.7818 17.5843L46.8615 17.5611ZM46.803 14.4889L45.7231 14.4735L45.7231 14.4738L46.803 14.4889ZM48.6804 9.28003L49.4577 10.0298L49.4578 10.0297L48.6804 9.28003ZM50.9174 8.05815L51.0396 9.13121L51.0398 9.13119L50.9174 8.05815ZM53.3263 8.81145L54.0013 7.96838L54.0012 7.9683L53.3263 8.81145ZM54.9149 10.8411L55.8884 10.3733L55.8883 10.373L54.9149 10.8411ZM55.5358 13.4141L54.4592 13.5002L54.4593 13.5005L55.5358 13.4141ZM55.8015 19.7716L56.8808 19.7319L56.8808 19.7317L55.8015 19.7716ZM56.0763 27.6429L57.1558 27.6091V27.609L56.0763 27.6429ZM56.4568 40.443L57.5363 40.4102V40.4102L56.4568 40.443ZM56.7324 49.6863L57.8119 49.6535V49.6535L56.7324 49.6863ZM56.864 55.7686H55.784V56.8486H56.864V55.7686ZM58.6659 55.7686L58.9077 56.8211L58.9091 56.8208L58.6659 55.7686ZM58.7337 55.689L59.8034 55.8374L59.8037 55.8356L58.7337 55.689ZM58.7377 55.0167L59.8177 55.0258L59.8177 55.0243L58.7377 55.0167ZM58.742 54.3245L59.822 54.3283V54.328L58.742 54.3245ZM58.7248 52.9967L59.8044 52.9666V52.9666L58.7248 52.9967ZM58.6436 50.168L59.7231 50.1363L59.7231 50.1361L58.6436 50.168ZM58.3001 38.8671L57.2206 38.8994V38.8994L58.3001 38.8671ZM57.947 27.6869L56.8677 27.7252L56.8677 27.7252L57.947 27.6869ZM57.9543 25.1668L56.8779 25.0784L56.8779 25.0786L57.9543 25.1668ZM58.5286 22.7815L57.5295 22.3712L57.5295 22.3713L58.5286 22.7815ZM61.8392 20.0077L61.7623 21.0849L61.7623 21.0849L61.8392 20.0077ZM64.8865 22.8429L63.8828 23.2418L63.8828 23.2418L64.8865 22.8429ZM65.3994 25.2085L66.4736 25.0969L66.4736 25.0967L65.3994 25.2085ZM65.5571 27.8892L64.4777 27.9253L64.4777 27.9254L65.5571 27.8892ZM65.8992 38.9937L66.9787 38.9631L66.9787 38.963L65.8992 38.9937ZM66.2217 50.2083L67.3012 50.1739V50.1739L66.2217 50.2083ZM66.5548 61.4515L65.4752 61.4806V61.4807L66.5548 61.4515ZM66.7687 72.5607L67.8487 72.5687V72.5687L66.7687 72.5607ZM66.192 83.2033L65.1171 83.0982L65.1171 83.0984L66.192 83.2033ZM68.4861 57.5868L67.4067 57.623V57.6231L68.4861 57.5868ZM68.141 45.9022L67.0615 45.9354V45.9354L68.141 45.9022ZM67.7731 33.4265L68.8526 33.3948L68.8526 33.3947L67.7731 33.4265ZM67.6109 27.2606L68.6907 27.2432V27.243L67.6109 27.2606ZM67.4303 24.3227L66.3634 24.4907L66.3634 24.4911L67.4303 24.3227ZM66.6719 21.7552L67.6603 21.32L67.6602 21.3198L66.6719 21.7552ZM63.5147 18.3405L63.9636 17.3582L63.9636 17.3582L63.5147 18.3405ZM58.7772 18.998L58.1033 18.154L58.1033 18.1541L58.7772 18.998ZM57.9425 19.7055L56.8823 19.9111L57.2212 21.6593L58.6149 20.5507L57.9425 19.7055ZM57.8036 17.4942L56.7243 17.5326L56.7243 17.533L57.8036 17.4942ZM57.7125 15.0314L58.7914 14.9835L58.7914 14.9834L57.7125 15.0314ZM57.0102 10.5538L55.999 10.9329L55.999 10.933L57.0102 10.5538ZM50.9182 5.97179L50.8368 4.89486L50.8367 4.89487L50.9182 5.97179ZM48.6848 6.62688L48.159 5.68354L48.1589 5.68357L48.6848 6.62688ZM46.8797 8.11302L45.8326 8.37749L46.3056 10.2503L47.6534 8.86657L46.8797 8.11302ZM45.5568 4.29853L46.4831 3.74325L46.4831 3.7432L45.5568 4.29853ZM42.5219 1.51922L42.0805 2.50489L42.0806 2.5049L42.5219 1.51922ZM38.0965 1.68345L38.6079 2.63472L38.608 2.63466L38.0965 1.68345ZM35.3585 4.34835L36.2903 4.89444L36.2903 4.8944L35.3585 4.34835ZM34.0064 8.78168L33.273 9.57448L34.7054 10.8995L35.0676 8.98219L34.0064 8.78168ZM31.4533 7.06772L31.8006 6.04508L31.8005 6.04505L31.4533 7.06772ZM28.2755 7.03755L27.9456 6.00916L27.9454 6.0092L28.2755 7.03755ZM24.1874 11.0472L23.1937 10.6242L23.1936 10.6243L24.1874 11.0472ZM23.2707 17.9106L24.3498 17.9545L24.3498 17.9545L23.2707 17.9106ZM22.9845 25.6975L21.9053 25.6569L21.9053 25.657L22.9845 25.6975ZM22.5725 36.2056L21.4933 36.1633L21.4933 36.1633L22.5725 36.2056ZM22.0818 47.4444L21.0029 47.3963L21.0029 47.3964L22.0818 47.4444ZM20.8081 61.4722L21.8858 61.5417L21.8858 61.5416L20.8081 61.4722ZM20.7404 62.3763L21.7868 62.644L21.787 62.6431L20.7404 62.3763ZM20.542 62.8384L19.5559 63.2789L20.5879 65.5892L21.5422 63.2458L20.542 62.8384ZM19.7435 60.7762L18.7327 61.1563L18.7327 61.1564L19.7435 60.7762ZM18.6828 58.1153L19.6775 57.6946L19.6775 57.6945L18.6828 58.1153ZM16.4252 53.3781L15.4739 53.8894L15.4739 53.8894L16.4252 53.3781ZM13.542 49.1316L12.7454 49.8609L12.7454 49.861L13.542 49.1316ZM9.5428 46.1496L9.07279 47.122L9.07288 47.122L9.5428 46.1496ZM4.51614 45.0749L4.46979 43.9959H4.46977L4.51614 45.0749ZM1.6538 45.5796L1.96884 46.6126L1.96913 46.6125L1.6538 45.5796ZM1.08052 46.1603L0.00117671 46.1979L0.00120091 46.1986L1.08052 46.1603ZM1.29173 47.5914L0.224289 47.7556L0.224342 47.756L1.29173 47.5914ZM3.02594 59.4741L1.9573 59.6304L1.95731 59.6304L3.02594 59.4741ZM4.59248 70.348L3.52311 70.4991L3.52313 70.4993L4.59248 70.348ZM5.12789 74.223L4.05542 74.3503L4.05545 74.3505L5.12789 74.223ZM5.45311 77.1937L4.38194 77.3315L4.38197 77.3317L5.45311 77.1937ZM5.93708 79.8452L4.88313 80.081L4.88317 80.0812L5.93708 79.8452ZM7.38091 85.139L6.35734 85.4835H6.35734L7.38091 85.139ZM9.50999 89.744L10.4251 89.1705L10.425 89.1703L9.50999 89.744ZM11.0901 91.9946L11.9619 91.3572L11.9619 91.3571L11.0901 91.9946ZM12.8889 94.4135L12.0265 95.0636L12.0266 95.0637L12.8889 94.4135ZM16.2026 98.7626L17.0619 98.1083L17.0618 98.1082L16.2026 98.7626ZM22.5644 107.465L21.6655 108.064L21.6656 108.064L22.5644 107.465ZM24.7874 111.93L23.7629 112.272L23.763 112.272L24.7874 111.93ZM25.8422 117.148L24.7687 117.266L24.7687 117.266L25.8422 117.148ZM26.5297 127.778L27.6092 127.743L27.6091 127.743L26.5297 127.778ZM26.5524 128.481L25.4729 128.516L25.473 128.517L26.5524 128.481ZM26.6875 128.972L27.2245 128.035L27.2235 128.035L26.6875 128.972ZM27.0673 129.001L27.1153 130.08H27.1154L27.0673 129.001ZM27.8038 128.974L27.8377 130.053L27.8384 130.053L27.8038 128.974ZM29.2661 128.943L29.2559 127.863L29.2558 127.863L29.2661 128.943ZM35.4071 128.911L35.4123 129.991H35.4124L35.4071 128.911ZM43.8109 128.871L43.816 129.951H43.8161L43.8109 128.871ZM48.8191 128.848L48.8212 129.928H48.8212L48.8191 128.848ZM54.9251 128.842L54.924 127.762H54.9238L54.9251 128.842ZM57.9727 128.838L57.9742 129.918H57.9744L57.9727 128.838ZM59.4963 128.836L59.498 129.916H59.4982L59.4963 128.836ZM60.1903 128.823L60.2564 129.901L60.2613 129.901L60.1903 128.823ZM60.3114 128.816L61.1045 129.549L61.1088 129.544L60.3114 128.816ZM60.3126 128.464L59.2329 128.488L59.2329 128.49L60.3126 128.464ZM60.2385 122.387L61.3185 122.385V122.385L60.2385 122.387ZM60.2354 119.372L61.3154 119.372L60.2354 119.372ZM60.2401 116.419L59.1626 116.345L59.1626 116.345L60.2401 116.419ZM60.6101 115.093L61.6229 115.468L61.623 115.467L60.6101 115.093ZM61.1293 113.7L60.1122 113.336L60.112 113.337L61.1293 113.7ZM61.5725 112.403L60.55 112.055L60.55 112.055L61.5725 112.403ZM63.4791 106.681L64.5076 107.01L64.5077 107.01L63.4791 106.681ZM65.1845 100.983L64.1419 100.701L64.1419 100.702L65.1845 100.983ZM66.5212 95.0702L67.5817 95.2745V95.2745L66.5212 95.0702ZM68.218 83.8304L67.1437 83.7191L67.1437 83.7192L68.218 83.8304ZM68.8478 73.3095L67.7679 73.2911L68.8478 73.3095ZM65.8973 85.9407L64.8248 85.814C64.406 89.3608 63.8481 92.8844 63.0797 96.3574L64.1342 96.5907L65.1887 96.8241C65.9758 93.2663 66.5446 89.6696 66.9699 86.0673L65.8973 85.9407ZM64.1342 96.5907L63.0797 96.3574C62.3763 99.5364 61.465 102.674 60.4689 105.803L61.498 106.13L62.5271 106.458C63.5333 103.298 64.4657 100.091 65.1887 96.8241L64.1342 96.5907ZM61.498 106.13L60.4689 105.803C59.9346 107.481 59.373 109.152 58.7894 110.816L59.8086 111.173L60.8277 111.531C61.4174 109.849 61.9858 108.158 62.5271 106.458L61.498 106.13ZM59.8086 111.173L58.7894 110.816C58.4785 111.703 58.1611 112.587 57.8385 113.471L58.853 113.841L59.8675 114.212C60.1928 113.32 60.5133 112.427 60.8277 111.531L59.8086 111.173ZM58.853 113.841L57.8386 113.47C57.6842 113.893 57.485 114.403 57.3219 114.87L58.3414 115.226L59.361 115.583C59.5223 115.121 59.6839 114.714 59.8673 114.212L58.853 113.841ZM58.3414 115.226L57.3216 114.871C57.1169 115.458 57.076 116.04 57.0792 116.544L58.1592 116.537L59.2392 116.53C59.2367 116.144 59.2715 115.839 59.3613 115.582L58.3414 115.226ZM58.1592 116.537L57.0792 116.544C57.0918 118.446 57.099 120.349 57.1067 122.253L58.1867 122.249L59.2667 122.245C59.259 120.341 59.2517 118.435 59.2392 116.53L58.1592 116.537ZM58.1867 122.249L57.1067 122.253C57.1106 123.211 57.1155 124.163 57.1189 125.119L58.1989 125.115L59.2789 125.111C59.2754 124.156 59.2706 123.198 59.2667 122.245L58.1867 122.249ZM58.1989 125.115L57.1189 125.12C57.1214 125.694 57.1557 126.033 57.1251 126.445L58.2021 126.525L59.2792 126.605C59.3174 126.09 59.2804 125.468 59.2789 125.11L58.1989 125.115ZM58.2021 126.525L57.1255 126.44C57.1239 126.46 57.123 126.478 57.1226 126.485C57.1224 126.489 57.1222 126.494 57.122 126.497C57.1218 126.501 57.1217 126.504 57.1215 126.506C57.1209 126.519 57.1206 126.522 57.1207 126.521C57.1208 126.52 57.1212 126.515 57.1222 126.507C57.1231 126.5 57.1252 126.485 57.129 126.465C57.1326 126.447 57.14 126.411 57.1544 126.366C57.1665 126.327 57.1968 126.238 57.2609 126.135L58.1774 126.707L59.0939 127.278C59.1631 127.167 59.198 127.067 59.2141 127.016C59.2325 126.958 59.2435 126.908 59.2501 126.873C59.2631 126.806 59.2691 126.746 59.2722 126.712C59.2756 126.674 59.2775 126.64 59.2785 126.62C59.2804 126.585 59.2796 126.6 59.2788 126.61L58.2021 126.525ZM58.1774 126.707L57.2621 126.133C57.2395 126.17 57.2085 126.222 57.1794 126.286C57.1616 126.325 57.1494 126.358 57.1418 126.379C57.1397 126.385 57.1435 126.374 57.1471 126.365C57.1498 126.357 57.1646 126.317 57.1886 126.267C57.2108 126.221 57.2695 126.106 57.3826 125.989C57.4434 125.926 57.5188 125.863 57.6104 125.809C57.7024 125.755 57.7954 125.718 57.8837 125.695C58.0472 125.651 58.1806 125.658 58.2207 125.66C58.2584 125.663 58.3005 125.668 58.2785 125.665C58.2558 125.663 58.202 125.657 58.1331 125.659C58.0022 125.662 57.8958 125.688 57.8239 125.711C57.7539 125.734 57.6983 125.759 57.6622 125.778C57.6243 125.797 57.5919 125.815 57.5667 125.831L58.1296 126.752L58.6925 127.674C58.6814 127.681 58.6028 127.73 58.485 127.768C58.4173 127.789 58.3135 127.815 58.1842 127.818C58.1162 127.82 58.063 127.815 58.0407 127.812C58.0189 127.81 58.0612 127.815 58.099 127.817C58.1392 127.819 58.2728 127.826 58.4365 127.783C58.5247 127.759 58.6178 127.723 58.7099 127.668C58.8015 127.614 58.877 127.551 58.9378 127.488C59.051 127.371 59.1097 127.256 59.132 127.21C59.1561 127.16 59.171 127.119 59.1738 127.112C59.1775 127.102 59.1814 127.09 59.1795 127.096C59.1724 127.116 59.1612 127.146 59.1454 127.181C59.1202 127.236 59.0975 127.272 59.0927 127.28L58.1774 126.707ZM58.1296 126.752L57.5683 125.83C57.6897 125.756 57.7979 125.725 57.8561 125.711C57.9185 125.696 57.9674 125.692 57.9929 125.69C58.0411 125.687 58.0696 125.69 58.0586 125.689C58.0493 125.688 58.0415 125.687 58.0043 125.684C57.99 125.682 57.9669 125.68 57.9421 125.678C57.92 125.676 57.8771 125.674 57.8265 125.674L57.8332 126.754L57.8399 127.834C57.7892 127.834 57.7531 127.829 57.7936 127.833C57.8091 127.835 57.8605 127.84 57.9099 127.844C57.9575 127.847 58.0442 127.852 58.1432 127.845C58.1942 127.841 58.2666 127.833 58.3498 127.814C58.4288 127.795 58.5551 127.758 58.691 127.675L58.1296 126.752ZM57.8332 126.754L57.8283 125.674C57.6938 125.675 57.5596 125.675 57.4253 125.676L57.4302 126.756L57.4351 127.836C57.5694 127.835 57.7036 127.835 57.8381 127.834L57.8332 126.754ZM57.4302 126.756L57.4253 125.676C53.5194 125.693 49.6138 125.711 45.7079 125.731L45.7133 126.811L45.7188 127.891C49.6241 127.871 53.5293 127.853 57.4351 127.836L57.4302 126.756ZM45.7133 126.811L45.7079 125.731C41.7829 125.751 37.8583 125.77 33.9334 125.789L33.9386 126.869L33.9438 127.949C37.8689 127.93 41.7937 127.911 45.7188 127.891L45.7133 126.811ZM33.9386 126.869L33.9332 125.789C32.9639 125.794 31.9952 125.798 31.0257 125.803L31.0309 126.883L31.0361 127.963C32.0049 127.958 32.9745 127.954 33.944 127.949L33.9386 126.869ZM31.0309 126.883L31.0264 125.803C30.5411 125.805 30.0561 125.807 29.5714 125.81L29.5763 126.89L29.5813 127.97C30.0661 127.967 30.5507 127.965 31.0354 127.963L31.0309 126.883ZM29.5763 126.89L29.5709 125.81C29.3288 125.811 29.0869 125.812 28.8442 125.813L28.8487 126.893L28.8532 127.973C29.0958 127.972 29.3386 127.971 29.5817 127.97L29.5763 126.89ZM28.8487 126.893V125.813C28.7956 125.813 28.7502 125.817 28.7429 125.817C28.7271 125.819 28.711 125.82 28.7037 125.821C28.6936 125.822 28.6878 125.823 28.6821 125.823C28.6796 125.823 28.6777 125.824 28.6763 125.824C28.675 125.824 28.6744 125.824 28.6745 125.824C28.6745 125.824 28.6756 125.824 28.6776 125.824C28.6796 125.824 28.6829 125.823 28.6875 125.823C28.6953 125.823 28.7138 125.823 28.7396 125.824C28.762 125.825 28.813 125.829 28.8788 125.843C28.913 125.85 28.9617 125.862 29.0187 125.883C29.0741 125.903 29.1551 125.938 29.2439 125.997L28.641 126.893L28.0381 127.789C28.2102 127.905 28.3729 127.944 28.4373 127.957C28.5175 127.974 28.5853 127.979 28.6263 127.981C28.7084 127.985 28.7801 127.981 28.8169 127.979C28.8583 127.976 28.8968 127.972 28.9123 127.971C28.9234 127.97 28.9238 127.97 28.9219 127.97C28.9204 127.97 28.914 127.971 28.9048 127.971C28.8975 127.972 28.8766 127.973 28.8487 127.973V126.893ZM28.641 126.893L29.2353 125.992C29.4023 126.102 29.5041 126.236 29.5627 126.337C29.6203 126.436 29.6491 126.523 29.6637 126.576C29.6913 126.677 29.6941 126.752 29.6946 126.764C29.6955 126.783 29.695 126.794 29.6953 126.775C29.6953 126.77 29.6956 126.753 29.6957 126.737C29.6957 126.722 29.6956 126.692 29.6938 126.656L28.6153 126.713L27.5368 126.77C27.535 126.737 27.536 126.708 27.5355 126.744C27.5353 126.759 27.5344 126.808 27.5369 126.863C27.539 126.91 27.5456 127.02 27.5809 127.149C27.608 127.247 27.7076 127.572 28.0466 127.795L28.641 126.893ZM28.6153 126.713L29.6937 126.655C29.5933 124.79 29.4974 122.909 29.3656 121.03L28.2882 121.105L27.2109 121.181C27.3411 123.038 27.4359 124.897 27.5368 126.771L28.6153 126.713ZM28.2882 121.105L29.3656 121.03C29.2389 119.223 29.0799 117.396 28.8136 115.574L27.7449 115.73L26.6763 115.886C26.9311 117.629 27.0856 119.394 27.2109 121.181L28.2882 121.105ZM27.7449 115.73L28.8136 115.574C28.5647 113.87 28.2451 112.077 27.622 110.361L26.6069 110.729L25.5917 111.098C26.1366 112.599 26.4318 114.212 26.6762 115.886L27.7449 115.73ZM26.6069 110.729L27.622 110.361C26.9812 108.596 26.0677 106.96 25.0102 105.459L24.1275 106.081L23.2447 106.703C24.2154 108.081 25.0289 109.548 25.5917 111.098L26.6069 110.729ZM24.1275 106.081L25.0102 105.459C23.8921 103.873 22.7312 102.317 21.5874 100.776L20.7202 101.42L19.853 102.064C21.0027 103.613 22.1454 105.144 23.2447 106.704L24.1275 106.081ZM20.7202 101.42L21.5874 100.776C19.2982 97.6927 16.9874 94.6273 14.675 91.5671L13.8133 92.2182L12.9516 92.8692C15.2636 95.9289 17.5697 98.988 19.853 102.064L20.7202 101.42ZM13.8133 92.2182L14.675 91.5671C13.6748 90.2432 12.7295 89.0169 11.9789 87.6647L11.0346 88.1888L10.0903 88.713C10.9302 90.2261 11.9807 91.5842 12.9516 92.8692L13.8133 92.2182ZM11.0346 88.1888L11.9789 87.6647C11.2605 86.3703 10.6792 84.9899 10.1924 83.5626L9.17019 83.9112L8.14802 84.2598C8.66639 85.7797 9.29644 87.2825 10.0903 88.7129L11.0346 88.1888ZM9.17019 83.9112L10.1924 83.5626C9.10873 80.3848 8.51912 77.0514 8.20562 73.662L7.13021 73.7615L6.0548 73.861C6.37877 77.3635 6.99363 80.8746 8.14799 84.2598L9.17019 83.9112ZM7.13021 73.7615L8.20561 73.6619C8.02566 71.7182 7.69036 69.7728 7.42298 67.918L6.35403 68.0721L5.28508 68.2262C5.56404 70.1613 5.8816 71.9901 6.05481 73.8611L7.13021 73.7615ZM6.35403 68.0721L7.423 67.9181C7.14438 65.9832 6.8659 64.0478 6.58641 62.1126L5.5175 62.267L4.44859 62.4214C4.728 64.356 5.00639 66.2907 5.28505 68.226L6.35403 68.0721ZM5.5175 62.267L6.58641 62.1126C6.05418 58.4277 5.51824 54.7432 4.98414 51.0598L3.91532 51.2147L2.8465 51.3697C3.38079 55.0545 3.91648 58.7373 4.44859 62.4214L5.5175 62.267ZM3.91532 51.2147L4.98415 51.0598C4.87383 50.2987 4.76391 49.5378 4.65395 48.7764L3.58504 48.9307L2.51613 49.0851C2.62609 49.8465 2.73608 50.608 2.84649 51.3697L3.91532 51.2147ZM3.58504 48.9307L4.65386 48.7757C4.60367 48.4297 4.55433 48.0879 4.50402 47.7408L3.43519 47.8958L2.36636 48.0507C2.41609 48.3937 2.46638 48.7421 2.51623 49.0858L3.58504 48.9307ZM3.43519 47.8958L4.50414 47.7417C4.48638 47.6184 4.47102 47.4976 4.45854 47.3779L3.38437 47.49L2.31019 47.602C2.32606 47.7541 2.34513 47.9034 2.36624 48.0499L3.43519 47.8958ZM3.38437 47.49L4.45849 47.3774C4.4532 47.327 4.44551 47.2857 4.44195 47.2672C4.43781 47.2456 4.43361 47.2263 4.43142 47.2163C4.42806 47.2009 4.42791 47.2005 4.42615 47.1923C4.42509 47.1874 4.42511 47.1873 4.4256 47.1899C4.42606 47.1923 4.42771 47.2011 4.42956 47.2145C4.43131 47.2271 4.43426 47.2511 4.43581 47.2829C4.43726 47.3129 4.43838 47.3664 4.43063 47.4343C4.42339 47.4977 4.40414 47.6136 4.34232 47.7471L3.36229 47.2933L2.38226 46.8395C2.31568 46.9833 2.29342 47.1117 2.28455 47.1894C2.27519 47.2715 2.27608 47.3409 2.27836 47.3879C2.28279 47.4789 2.29639 47.5552 2.30344 47.5924C2.31076 47.631 2.32007 47.6722 2.3213 47.6778C2.32828 47.7097 2.31658 47.663 2.31024 47.6025L3.38437 47.49ZM3.36229 47.2933L4.33966 47.7528C4.30097 47.8351 4.20317 48.0155 3.99479 48.1626C3.77887 48.315 3.56818 48.3415 3.52196 48.3475C3.51025 48.3491 3.5007 48.3501 3.50274 48.3498C3.50295 48.3498 3.50272 48.3498 3.50313 48.3498C3.50334 48.3498 3.50368 48.3497 3.50408 48.3497C3.50488 48.3496 3.50613 48.3495 3.50764 48.3493C3.51064 48.349 3.51527 48.3484 3.52087 48.3478C3.54399 48.3449 3.58536 48.3393 3.63606 48.3278C3.74656 48.3028 3.85773 48.2604 3.96477 48.1975L3.41798 47.2662L2.87119 46.3348C2.96253 46.2812 3.0605 46.2434 3.1596 46.221C3.20461 46.2108 3.24073 46.2059 3.25899 46.2037C3.26659 46.2028 3.27342 46.202 3.27009 46.2024C3.26987 46.2024 3.25815 46.2037 3.24434 46.2055C3.18972 46.2125 2.97179 46.2407 2.74913 46.3979C2.53402 46.5498 2.43 46.7379 2.38492 46.8338L3.36229 47.2933ZM3.41798 47.2662L3.97029 48.1943C3.91214 48.2289 3.86259 48.2498 3.83125 48.2616C3.7989 48.2739 3.77362 48.281 3.75924 48.2847C3.74434 48.2886 3.73433 48.2906 3.73105 48.2912C3.72753 48.2918 3.72735 48.2918 3.7317 48.2912C3.73598 48.2905 3.7425 48.2896 3.75263 48.2884C3.76336 48.2871 3.7739 48.2859 3.78982 48.284C3.80377 48.2824 3.82356 48.2801 3.8438 48.2775C3.86374 48.2749 3.89176 48.271 3.92283 48.2657L3.74077 47.2012L3.55871 46.1366C3.57118 46.1345 3.57503 46.1344 3.53987 46.1385C3.51615 46.1413 3.46826 46.1467 3.419 46.1539C3.37022 46.161 3.29718 46.1731 3.21649 46.194C3.1449 46.2126 3.0097 46.2524 2.86567 46.3381L3.41798 47.2662ZM3.74077 47.2012L3.92281 48.2657C4.01336 48.2503 4.10282 48.2374 4.19154 48.2272L4.06902 47.1542L3.9465 46.0812C3.8153 46.0962 3.68606 46.1149 3.55872 46.1366L3.74077 47.2012ZM4.06902 47.1542L4.19147 48.2272C6.78103 47.9317 9.36214 49.2415 11.1901 51.2635L11.9912 50.5392L12.7924 49.8149C10.6485 47.4435 7.42552 45.6842 3.94656 46.0812L4.06902 47.1542ZM11.9912 50.5392L11.1901 51.2634C13.3081 53.6065 14.6229 56.6405 15.9192 59.7401L16.9156 59.3235L17.912 58.9068C16.6353 55.8541 15.1962 52.4741 12.7924 49.815L11.9912 50.5392ZM16.9156 59.3235L15.9193 59.7402C17.2524 62.9276 18.3657 66.2117 19.3317 69.5466L20.3691 69.2462L21.4064 68.9457C20.4228 65.5499 19.2834 62.1856 17.912 58.9067L16.9156 59.3235ZM20.3691 69.2462L19.3317 69.5468C19.8565 71.3575 20.3245 73.1871 20.7892 75.0344L21.8366 74.771L22.8839 74.5075C22.4188 72.6584 21.9427 70.7964 21.4064 68.9455L20.3691 69.2462ZM21.8366 74.771L20.7891 75.0341C20.9062 75.5003 21.0238 75.9672 21.1424 76.4341L22.1891 76.1682L23.2359 75.9023C23.118 75.4382 23.001 74.9735 22.884 74.5078L21.8366 74.771ZM22.1891 76.1682L21.1421 76.4332C21.1972 76.6507 21.2526 76.8678 21.3084 77.0847L22.3544 76.8156L23.4003 76.5465C23.3451 76.3321 23.2904 76.1178 23.2361 75.9033L22.1891 76.1682ZM22.3544 76.8156L21.3084 77.0845C21.3361 77.1924 21.3405 77.2353 21.3844 77.4278C21.4172 77.5721 21.4694 77.7805 21.5638 77.9914L22.5496 77.5501L23.5353 77.1088C23.5301 77.0971 23.5151 77.0564 23.4904 76.9482C23.4768 76.8881 23.4334 76.6751 23.4004 76.5467L22.3544 76.8156ZM22.5496 77.5501L21.5637 77.991C21.7138 78.3266 21.9528 78.5454 22.1992 78.6814C22.3743 78.7781 22.6018 78.848 22.6048 78.849L22.9635 77.8303L23.3221 76.8116C23.2929 76.8013 23.2638 76.7915 23.2458 76.7854C23.2248 76.7783 23.2136 76.7744 23.2053 76.7714C23.1872 76.7648 23.2081 76.7711 23.2433 76.7906C23.2831 76.8125 23.3426 76.8517 23.403 76.9147C23.4648 76.979 23.5079 77.0476 23.5355 77.1091L22.5496 77.5501ZM22.9635 77.8303L22.6041 78.8488C22.8098 78.9214 23.0148 78.9967 23.2191 79.0748L23.6044 78.0658L23.9897 77.0569C23.7687 76.9725 23.5464 76.8908 23.3228 76.8119L22.9635 77.8303ZM23.6044 78.0658L23.2184 79.0745C23.6027 79.2216 23.9841 79.3782 24.3622 79.5434L24.7945 78.5537L25.2268 77.564C24.8196 77.3861 24.4072 77.2167 23.9904 77.0572L23.6044 78.0658ZM24.7945 78.5537L24.3617 79.5431C27.3629 80.8559 30.1194 82.7133 32.7482 84.782L33.4161 83.9333L34.084 83.0846C31.3806 80.9571 28.4619 78.979 25.2273 77.5642L24.7945 78.5537ZM33.4161 83.9333L32.7481 84.7819C33.3649 85.2674 33.9749 85.7643 34.5812 86.269L35.2722 85.4391L35.9633 84.6091C35.3452 84.0945 34.7196 83.5849 34.0842 83.0847L33.4161 83.9333ZM35.2722 85.4391L34.5818 86.2695C34.5758 86.2645 34.582 86.2693 34.6165 86.3032C34.64 86.3262 34.6937 86.3798 34.7409 86.4244C34.7912 86.4721 34.8622 86.5367 34.9456 86.6C35.0252 86.6604 35.1505 86.7461 35.3122 86.8108L35.7129 85.8078L36.1135 84.8049C36.2003 84.8395 36.2486 84.8772 36.251 84.879C36.2573 84.8838 36.2509 84.8795 36.2254 84.8554C36.1968 84.8283 36.1762 84.8074 36.1289 84.761C36.0925 84.7253 36.0312 84.6655 35.9627 84.6086L35.2722 85.4391ZM35.7129 85.8078L35.3138 86.8114C35.3049 86.8079 35.2664 86.7907 35.3139 86.8122C35.3218 86.8158 35.4001 86.8526 35.5023 86.8788C35.625 86.9104 35.829 86.9401 36.0679 86.874C36.2942 86.8115 36.4424 86.6924 36.5109 86.6307C36.5736 86.5743 36.6182 86.5202 36.6225 86.5151C36.6487 86.4843 36.6321 86.5036 36.6295 86.5064L35.835 85.7748L35.0405 85.0432C35.0026 85.0844 34.9639 85.1314 34.9741 85.1193C34.976 85.1171 34.9847 85.1068 34.9972 85.0932C35.0092 85.0801 35.0329 85.0549 35.0656 85.0255C35.1283 84.969 35.2714 84.8532 35.4923 84.7921C35.7257 84.7276 35.9241 84.757 36.04 84.7868C36.094 84.8007 36.1356 84.816 36.1584 84.8249C36.1815 84.834 36.1986 84.8417 36.2036 84.8439C36.2311 84.8563 36.1644 84.8251 36.112 84.8043L35.7129 85.8078ZM35.835 85.7748L36.6283 86.5077C36.6686 86.4641 36.7087 86.4204 36.7479 86.3778L35.9528 85.6468L35.1578 84.9159C35.1184 84.9587 35.08 85.0005 35.0417 85.042L35.835 85.7748ZM35.9528 85.6468L36.7473 86.3784C36.8108 86.3095 36.8751 86.2396 36.9394 86.1697L36.1438 85.4393L35.3483 84.7089C35.2853 84.7774 35.2221 84.846 35.1584 84.9153L35.9528 85.6468ZM36.1438 85.4393L36.9386 86.1705C37.2422 85.8405 37.5447 85.5102 37.8463 85.1806L37.0496 84.4515L36.2529 83.7223C35.9514 84.0517 35.6505 84.3803 35.349 84.7081L36.1438 85.4393ZM37.0496 84.4515L37.7363 83.6179C35.831 82.0482 33.8887 80.451 31.7771 79.0373L31.1763 79.9347L30.5754 80.8321C32.584 82.1769 34.4461 83.7059 36.3628 85.285L37.0496 84.4515ZM31.1763 79.9347L31.7771 79.0372C29.971 77.8282 28.0658 76.7337 26.0506 75.8466L25.6154 76.835L25.1803 77.8235C27.0567 78.6495 28.8507 79.6776 30.5755 80.8322L31.1763 79.9347ZM25.6154 76.835L26.0502 75.8464C25.8331 75.751 25.6147 75.6577 25.3946 75.5667L24.9822 76.5649L24.5698 77.5631C24.7742 77.6475 24.9777 77.7344 25.1807 77.8237L25.6154 76.835ZM24.9822 76.5649L25.3943 75.5666C25.3061 75.5302 25.2166 75.499 25.1601 75.4791C25.0936 75.4557 25.055 75.4418 25.022 75.4283C24.9906 75.4155 24.9859 75.4115 24.9954 75.4172C25.0059 75.4236 25.0423 75.447 25.085 75.4939L24.2862 76.2209L23.4875 76.9478C23.7355 77.2203 24.0317 77.3569 24.2033 77.4272C24.2946 77.4645 24.3839 77.4958 24.4426 77.5165C24.5114 77.5407 24.5445 77.5526 24.5701 77.5632L24.9822 76.5649ZM24.2862 76.2209L25.0842 75.4931C25.154 75.5696 25.1627 75.6289 25.1469 75.5764C25.1394 75.5516 25.1311 75.5185 25.1172 75.4586C25.1058 75.4092 25.0863 75.3219 25.0643 75.2395L24.0209 75.5186L22.9776 75.7976C22.9874 75.8342 22.9954 75.8705 23.0128 75.9456C23.0277 76.0101 23.0494 76.1023 23.0788 76.1998C23.1367 76.3918 23.2463 76.6833 23.4882 76.9486L24.2862 76.2209ZM24.0209 75.5186L25.064 75.2386C24.9803 74.9266 24.896 74.6116 24.8109 74.2973L23.7684 74.5794L22.7259 74.8615C22.8102 75.173 22.8935 75.4844 22.9779 75.7986L24.0209 75.5186ZM23.7684 74.5794L24.811 74.2975C24.4848 73.091 24.1643 71.9055 23.886 70.7127L22.8343 70.9581L21.7825 71.2035C22.0708 72.4391 22.4013 73.6608 22.7259 74.8613L23.7684 74.5794ZM22.8343 70.9581L23.8861 70.7128C23.7485 70.1229 23.657 69.6454 23.6567 69.1561L22.5767 69.1569L21.4967 69.1576C21.4972 69.9093 21.6394 70.59 21.7825 71.2034L22.8343 70.9581ZM22.5767 69.1569L23.6567 69.1558C23.6561 68.5796 23.6992 68.0481 23.7253 67.3903L22.6462 67.3475L21.567 67.3047C21.5453 67.8518 21.4961 68.528 21.4967 69.1579L22.5767 69.1569ZM22.6462 67.3475L23.7253 67.3903C23.7744 66.1513 23.8214 64.9199 23.8789 63.6885L22.8001 63.6381L21.7212 63.5878C21.6633 64.8289 21.6159 66.0704 21.567 67.3047L22.6462 67.3475ZM22.8001 63.6381L23.8789 63.6886C23.996 61.1841 24.2143 58.6938 24.4896 56.1889L23.4161 56.0709L22.3425 55.9529C22.0638 58.4883 21.8411 61.0256 21.7212 63.5877L22.8001 63.6381ZM23.4161 56.0709L24.4896 56.189C24.7509 53.813 24.9307 51.4329 25.0939 49.0681L24.0165 48.9937L22.939 48.9194C22.7762 51.2781 22.5988 53.6223 22.3425 55.9528L23.4161 56.0709ZM24.0165 48.9937L25.0939 49.0681C25.4115 44.4687 25.5859 39.8586 25.7782 35.2779L24.6991 35.2326L23.6201 35.1873C23.4272 39.7823 23.2541 44.3564 22.939 48.9193L24.0165 48.9937ZM24.6991 35.2326L25.7782 35.2779C25.9776 30.5282 26.1494 25.7781 26.3185 21.0309L25.2392 20.9924L24.1599 20.954C23.9908 25.7012 23.8192 30.4451 23.6201 35.1873L24.6991 35.2326ZM25.2392 20.9924L26.3185 21.0308C26.3625 19.7919 26.4104 18.5289 26.4542 17.2862L25.3749 17.2482L24.2955 17.2102C24.2514 18.464 24.2045 19.6966 24.1599 20.9541L25.2392 20.9924ZM25.3749 17.2482L26.4542 17.2862C26.4988 16.019 26.5301 14.8215 26.6923 13.6515L25.6225 13.5032L24.5527 13.3549C24.3719 14.6594 24.3387 15.9838 24.2955 17.2102L25.3749 17.2482ZM25.6225 13.5032L26.6923 13.6516C26.8064 12.8285 27.1 12.0525 27.5645 11.3977L26.6836 10.7729L25.8027 10.148C25.1207 11.1096 24.7103 12.2188 24.5528 13.3548L25.6225 13.5032ZM26.6836 10.7729L27.5645 11.3977C28.0861 10.6624 28.7082 10.1468 29.3734 9.99437L29.1322 8.94165L28.891 7.88893C27.4953 8.20873 26.4751 9.20015 25.8027 10.148L26.6836 10.7729ZM29.1322 8.94165L29.3734 9.99439C30.0092 9.84876 30.6146 10.026 31.1869 10.4684C31.7756 10.9236 32.2716 11.6245 32.5759 12.353L33.5725 11.9366L34.569 11.5203C34.1496 10.5165 33.4475 9.48594 32.508 8.75959C31.5521 8.02052 30.2993 7.56637 28.8911 7.88891L29.1322 8.94165ZM33.5725 11.9366L32.576 12.353C32.9252 13.1888 33.0833 14.1294 33.1259 15.119L34.2049 15.0725L35.2839 15.0261C35.2345 13.8793 35.048 12.6666 34.569 11.5202L33.5725 11.9366ZM34.2049 15.0725L33.1259 15.1189C33.1781 16.3345 33.1481 17.5329 33.1506 18.8164L34.2306 18.8143L35.3106 18.8122C35.3082 17.6046 35.3386 16.3002 35.2839 15.0262L34.2049 15.0725ZM34.2306 18.8143L33.1506 18.8164C33.1569 22.1092 33.1579 25.3972 33.1629 28.6921L34.2429 28.6905L35.3229 28.6888C35.3179 25.3996 35.3169 22.1035 35.3106 18.8123L34.2306 18.8143ZM34.2429 28.6905L33.1629 28.6921C33.1688 32.689 33.1852 36.6858 33.201 40.6805L34.281 40.6762L35.361 40.672C35.3452 36.6765 35.3288 32.6826 35.3229 28.6889L34.2429 28.6905ZM34.281 40.6762L33.201 40.6805C33.2085 42.5705 33.2168 44.4614 33.2245 46.3506L34.3045 46.3462L35.3845 46.3418C35.3768 44.4512 35.3685 42.5623 35.361 40.672L34.281 40.6762ZM34.3045 46.3462L33.2245 46.3504C33.2256 46.6369 33.2268 46.9233 33.2279 47.2096C33.2291 47.496 33.2303 47.7822 33.2314 48.0684L34.3114 48.0642L35.3914 48.06C35.3903 47.7736 35.3891 47.4872 35.3879 47.2009C35.3868 46.9145 35.3856 46.6283 35.3845 46.342L34.3045 46.3462ZM34.3114 48.0642L33.2314 48.069C33.2313 48.0579 33.2314 48.0612 33.2283 48.1322C33.2261 48.183 33.2229 48.2561 33.2217 48.331C33.2207 48.3996 33.2205 48.5021 33.2299 48.6053C33.2344 48.6545 33.244 48.7394 33.2689 48.8357C33.2816 48.8846 33.3041 48.9599 33.3444 49.0453C33.3814 49.1236 33.4594 49.2671 33.6087 49.4011L34.3298 48.597L35.0509 47.793C35.1939 47.9212 35.2662 48.0563 35.298 48.1237C35.3331 48.1983 35.3511 48.2603 35.3598 48.2938C35.3768 48.3594 35.3806 48.4053 35.381 48.4095C35.3822 48.4229 35.3807 48.4123 35.3815 48.3649C35.3821 48.3238 35.384 48.278 35.3862 48.2275C35.3872 48.2049 35.3885 48.1771 35.3894 48.1535C35.3902 48.1336 35.3915 48.0966 35.3914 48.0595L34.3114 48.0642ZM34.3298 48.597L33.6085 49.4008C33.8046 49.5768 34.0098 49.6322 34.0789 49.6494C34.1698 49.6719 34.2453 49.6784 34.2855 49.6809C34.3669 49.686 34.4353 49.6817 34.462 49.6799C34.4942 49.6777 34.5253 49.6746 34.531 49.6741C34.5667 49.6706 34.5134 49.677 34.4543 49.677V48.597V47.517C34.4066 47.517 34.3674 47.5202 34.3581 47.521C34.3431 47.5221 34.3292 47.5235 34.3241 47.524C34.3068 47.5257 34.3111 47.5252 34.317 47.5248C34.3174 47.5247 34.3599 47.5214 34.42 47.5251C34.4495 47.5269 34.5156 47.5322 34.5986 47.5528C34.6417 47.5635 34.7041 47.5819 34.7758 47.6141C34.8459 47.6455 34.9475 47.7002 35.0512 47.7932L34.3298 48.597ZM34.4543 48.597V49.677H34.8403V48.597V47.517H34.4543V48.597ZM34.8403 48.597V49.677H36.206V48.597V47.517H34.8403V48.597ZM36.206 48.597L37.286 48.5968C37.2858 47.6405 37.2854 46.6841 37.285 45.7277L36.205 45.7282L35.125 45.7287C35.1254 46.6851 35.1258 47.6412 35.126 48.5973L36.206 48.597ZM36.205 45.7282L37.285 45.7278C37.2845 44.7168 37.2841 43.7057 37.2836 42.6947C37.2832 41.6836 37.2827 40.6726 37.2823 39.6617L36.2023 39.6621L35.1223 39.6625C35.1227 40.6736 35.1232 41.6846 35.1236 42.6956C35.1241 43.7067 35.1245 44.7177 35.125 45.7286L36.205 45.7282ZM36.2023 39.6621L37.2823 39.6618C37.2817 37.792 37.2809 35.9225 37.2801 34.0528L36.2001 34.0533L35.1201 34.0537C35.1209 35.9234 35.1217 37.7929 35.1223 39.6625L36.2023 39.6621ZM36.2001 34.0533L37.2801 34.0529C37.2795 32.3813 37.2775 30.7096 37.2748 29.0381L36.1948 29.0398L35.1148 29.0415C35.1175 30.7125 35.1195 32.3832 35.1201 34.0537L36.2001 34.0533ZM36.1948 29.0398L37.2748 29.0381C37.2686 25.0736 37.2647 21.1064 37.2501 17.1395L36.1701 17.1435L35.0901 17.1475C35.1047 21.1114 35.1086 25.0752 35.1148 29.0415L36.1948 29.0398ZM36.1701 17.1435L37.2501 17.1397C37.2436 15.3064 37.2241 13.4726 37.2082 11.6457L36.1282 11.6552L35.0483 11.6646C35.0643 13.4969 35.0837 15.3215 35.0901 17.1473L36.1701 17.1435ZM36.1282 11.6552L37.2082 11.6458C37.1912 9.67784 37.0922 8.02203 37.7479 6.55426L36.7618 6.11374L35.7758 5.67322C34.8807 7.6767 35.0332 9.92105 35.0483 11.6645L36.1282 11.6552ZM36.7618 6.11374L37.748 6.55412C38.3338 5.24227 39.3772 4.2626 40.447 4.24107L40.4253 3.16129L40.4035 2.08151C38.0729 2.12842 36.4863 4.08217 35.7757 5.67336L36.7618 6.11374ZM40.4253 3.16129L40.4469 4.24107C41.5211 4.2195 42.5472 5.18265 43.1788 6.53794L44.1577 6.08175L45.1367 5.62555C44.4075 4.06079 42.8185 2.03301 40.4036 2.08151L40.4253 3.16129ZM44.1577 6.08175L43.1788 6.53785C43.8648 8.01024 43.7849 9.62586 43.8205 11.6158L44.9003 11.5964L45.9801 11.5771C45.9489 9.83411 46.0667 7.62167 45.1367 5.62564L44.1577 6.08175ZM44.9003 11.5964L43.8205 11.6157C43.8581 13.726 43.8895 15.8369 43.9203 17.9494L45.0001 17.9337L46.08 17.9179C46.0492 15.8054 46.0178 13.6914 45.9801 11.5772L44.9003 11.5964ZM45.0001 17.9337L43.9203 17.9493C43.9596 20.6604 44.0039 23.3711 44.0495 26.0812L45.1293 26.063L46.2092 26.0449C46.1636 23.3353 46.1193 20.6266 46.08 17.918L45.0001 17.9337ZM45.1293 26.063L44.0495 26.0812C44.122 30.3906 44.1916 34.7 44.2613 39.0101L45.3411 38.9927L46.421 38.9752C46.3513 34.6652 46.2817 30.3551 46.2092 26.0449L45.1293 26.063ZM45.3411 38.9927L44.2613 39.0101C44.2959 41.1554 44.3346 43.3003 44.3737 45.4443L45.4535 45.4247L46.5334 45.405C46.4943 43.2609 46.4556 41.118 46.421 38.9752L45.3411 38.9927ZM45.4535 45.4247L44.3737 45.4445C44.4096 47.394 44.4079 49.4176 44.4849 51.409L45.5641 51.3672L46.6433 51.3255C46.5672 49.36 46.5704 47.4142 46.5334 45.4048L45.4535 45.4247ZM45.5641 51.3672L44.4849 51.4083C44.4848 51.4063 44.4849 51.3993 44.4846 51.4239C44.4845 51.4303 44.4838 51.4703 44.4863 51.5163C44.4887 51.5609 44.4962 51.6653 44.5347 51.7904C44.5786 51.9331 44.6572 52.0854 44.7846 52.2215C44.9025 52.3472 45.0241 52.418 45.097 52.4548C45.1664 52.4898 45.2259 52.5106 45.2457 52.5175C45.2671 52.525 45.2917 52.5328 45.2933 52.5333L45.6263 51.5059L45.9592 50.4785C45.9408 50.4726 45.9486 50.4751 45.9559 50.4776C45.9617 50.4796 46.0097 50.496 46.0699 50.5263C46.1336 50.5585 46.2482 50.6244 46.3607 50.7445C46.4828 50.8748 46.5577 51.0205 46.5992 51.1552C46.6352 51.2723 46.6414 51.3671 46.6432 51.4C46.645 51.4342 46.6443 51.4603 46.6445 51.45C46.6446 51.4412 46.6457 51.3894 46.6433 51.3262L45.5641 51.3672ZM45.6263 51.5059L45.2962 52.5343C45.4377 52.5797 45.5611 52.5903 45.6314 52.5936C45.707 52.5972 45.7722 52.5943 45.8117 52.592C45.8477 52.5898 45.8913 52.5861 45.898 52.5856C45.9192 52.584 45.9011 52.5859 45.8713 52.5859V51.5059V50.4259C45.8363 50.4259 45.8059 50.4273 45.7843 50.4285C45.7625 50.4297 45.7428 50.4311 45.7294 50.4322C45.7225 50.4327 45.7158 50.4333 45.7106 50.4337C45.705 50.4342 45.7008 50.4345 45.6968 50.4348C45.6889 50.4354 45.6855 50.4356 45.6844 50.4357C45.6833 50.4358 45.6872 50.4355 45.6945 50.4354C45.7016 50.4352 45.7154 50.4352 45.734 50.436C45.7523 50.4369 45.7803 50.439 45.8152 50.4443C45.8496 50.4495 45.8986 50.4591 45.9563 50.4776L45.6263 51.5059ZM45.8713 51.5059V52.5859H46.6242V51.5059V50.4259H45.8713V51.5059ZM46.6242 51.5059V52.5859H47.2957V51.5059V50.4259H46.6242V51.5059ZM47.2957 51.5059V52.5859C47.2712 52.5859 47.2523 52.585 47.2438 52.5846C47.2341 52.5841 47.227 52.5836 47.2241 52.5833C47.2192 52.583 47.2167 52.5827 47.2238 52.5834C47.2315 52.5841 47.2623 52.587 47.2951 52.5891C47.3234 52.5909 47.3878 52.5945 47.4641 52.5902C47.5023 52.588 47.5684 52.5826 47.6477 52.5654C47.711 52.5517 47.8755 52.5118 48.0485 52.3907L47.4291 51.5059L46.8098 50.6212C46.9005 50.5577 46.9842 50.5202 47.0421 50.4983C47.1016 50.4757 47.1529 50.4625 47.1893 50.4546C47.2597 50.4393 47.3152 50.4352 47.3417 50.4337C47.3945 50.4307 47.4311 50.4334 47.4314 50.4334C47.4362 50.4337 47.4388 50.434 47.4226 50.4325C47.4177 50.4321 47.4042 50.4308 47.39 50.4297C47.3819 50.4291 47.3429 50.4259 47.2957 50.4259V51.5059ZM47.4291 51.5059L48.0549 52.3862C48.2885 52.2201 48.39 52.0105 48.4248 51.9322C48.4681 51.8346 48.4893 51.7496 48.4996 51.702C48.5208 51.605 48.5274 51.5184 48.5303 51.4706C48.5366 51.3665 48.5346 51.2583 48.5322 51.1809C48.5296 51.0975 48.5252 51.0152 48.522 50.9572C48.5173 50.8705 48.5182 50.8767 48.518 50.9021L47.438 50.8911L46.3581 50.8802C46.3576 50.9262 46.36 50.9732 46.3608 50.9904C46.362 51.0163 46.3637 51.0472 46.3652 51.0743C46.3684 51.1333 46.3715 51.1928 46.3732 51.2485C46.3741 51.2759 46.3745 51.2987 46.3745 51.3169C46.3745 51.3363 46.3741 51.3432 46.3742 51.3406C46.3743 51.3389 46.3749 51.3304 46.3764 51.3169C46.3779 51.3047 46.3813 51.278 46.3891 51.2424C46.3957 51.2121 46.4124 51.1417 46.4507 51.0555C46.4706 51.0106 46.5029 50.9467 46.553 50.8761C46.6026 50.8062 46.6826 50.7116 46.8033 50.6257L47.4291 51.5059ZM47.438 50.8911L48.518 50.9014C48.5384 48.7474 48.4574 46.5671 48.4211 44.4618L47.3412 44.4804L46.2614 44.499C46.2988 46.664 46.3782 48.7642 46.3581 50.8809L47.438 50.8911ZM47.3412 44.4804L48.4211 44.4619C48.3753 41.7958 48.3289 39.1298 48.2809 36.4636L47.2011 36.4831L46.1213 36.5025C46.1693 39.1678 46.2156 41.8332 46.2614 44.4989L47.3412 44.4804ZM47.2011 36.4831L48.2809 36.4636C48.2088 32.4568 48.1311 28.4552 48.0641 24.4513L46.9842 24.4694L45.9044 24.4874C45.9714 28.4928 46.0492 32.5001 46.1213 36.5025L47.2011 36.4831ZM46.9842 24.4694L48.0641 24.451C48.0536 23.8311 48.0433 23.2111 48.0331 22.5908C48.0229 21.9706 48.0126 21.3501 48.0021 20.7297L46.9223 20.748L45.8424 20.7663C45.853 21.3862 45.8632 22.0061 45.8734 22.6264C45.8836 23.2466 45.8939 23.8671 45.9044 24.4877L46.9842 24.4694ZM46.9223 20.748L48.0021 20.7295C47.9839 19.6661 47.9642 18.6021 47.9413 17.5378L46.8615 17.5611L45.7818 17.5843C45.8046 18.6443 45.8242 19.7049 45.8424 20.7665L46.9223 20.748ZM46.8615 17.5611L47.9413 17.538C47.9185 16.4729 47.8689 15.5032 47.8829 14.5041L46.803 14.4889L45.7231 14.4738C45.7084 15.5215 45.7608 16.6032 45.7818 17.5841L46.8615 17.5611ZM46.803 14.4889L47.8829 14.5044C47.908 12.7547 48.3586 11.1694 49.4577 10.0298L48.6804 9.28003L47.903 8.5303C46.2883 10.2046 45.7527 12.4061 45.7231 14.4735L46.803 14.4889ZM48.6804 9.28003L49.4578 10.0297C49.9619 9.50689 50.4926 9.1935 51.0396 9.13121L50.9174 8.05815L50.7952 6.98508C49.5747 7.12408 48.6098 7.79726 47.9029 8.5304L48.6804 9.28003ZM50.9174 8.05815L51.0398 9.13119C51.5787 9.06971 52.1529 9.25554 52.6514 9.65459L53.3263 8.81145L54.0012 7.9683C53.1398 7.27871 52.0065 6.84691 50.795 6.9851L50.9174 8.05815ZM53.3263 8.81145L52.6513 9.65451C53.1834 10.0805 53.632 10.6653 53.9416 11.3092L54.9149 10.8411L55.8883 10.373C55.4539 9.46977 54.8123 8.61767 54.0013 7.96838L53.3263 8.81145ZM54.9149 10.8411L53.9415 11.3089C54.2532 11.9575 54.3928 12.6695 54.4592 13.5002L55.5358 13.4141L56.6124 13.328C56.5354 12.3657 56.3616 11.3581 55.8884 10.3733L54.9149 10.8411ZM55.5358 13.4141L54.4593 13.5005C54.6265 15.5836 54.6425 17.6515 54.7222 19.8114L55.8015 19.7716L56.8808 19.7317C56.8041 17.6549 56.7845 15.472 56.6123 13.3276L55.5358 13.4141ZM55.8015 19.7716L54.7222 19.8112C54.8186 22.4351 54.9145 25.0561 54.9968 27.6768L56.0763 27.6429L57.1558 27.609C57.0732 24.9817 56.9771 22.3552 56.8808 19.7319L55.8015 19.7716ZM56.0763 27.6429L54.9968 27.6768C55.1307 31.9447 55.2475 36.2029 55.3773 40.4757L56.4568 40.443L57.5363 40.4102C57.4069 36.1501 57.2896 31.8741 57.1558 27.6091L56.0763 27.6429ZM56.4568 40.443L55.3773 40.4757C55.424 42.0157 55.4695 43.5559 55.5151 45.0965C55.5606 46.637 55.6061 48.178 55.6529 49.7191L56.7324 49.6863L57.8119 49.6535C57.7651 48.1135 57.7196 46.5734 57.6741 45.0327C57.6286 43.4922 57.5831 41.9512 57.5363 40.4102L56.4568 40.443ZM56.7324 49.6863L55.6529 49.719C55.7147 51.7542 55.784 53.7603 55.784 55.7686H56.864H57.944C57.944 53.7195 57.8732 51.6736 57.8119 49.6535L56.7324 49.6863ZM56.864 55.7686V56.8486H57.8186V55.7686V54.6886H56.864V55.7686ZM57.8186 55.7686V56.8486H58.4563V55.7686V54.6886H57.8186V55.7686ZM58.4563 55.7686V56.8486C58.4361 56.8486 58.4247 56.8475 58.4389 56.8484C58.4417 56.8486 58.4803 56.8513 58.5085 56.8527C58.542 56.8543 58.5951 56.8562 58.657 56.8538C58.718 56.8515 58.8062 56.8445 58.9077 56.8211L58.6659 55.7686L58.424 54.716C58.4603 54.7076 58.4916 54.7029 58.5158 54.7C58.5401 54.6972 58.5601 54.696 58.5743 54.6954C58.5887 54.6949 58.5995 54.6949 58.6056 54.695C58.6118 54.6951 58.6152 54.6953 58.6145 54.6953C58.6137 54.6952 58.611 54.6951 58.604 54.6946C58.6005 54.6944 58.597 54.6942 58.592 54.6938C58.5873 54.6935 58.5815 54.6931 58.5753 54.6927C58.5632 54.692 58.5463 54.691 58.5273 54.6901C58.5084 54.6893 58.4839 54.6886 58.4563 54.6886V55.7686ZM58.6659 55.7686L58.9091 56.8208C58.8105 56.8436 58.6793 56.8558 58.5295 56.8304C58.4953 56.8246 58.4654 56.8177 58.441 56.8113C58.4187 56.8054 58.3999 56.7995 58.4045 56.8009C58.405 56.8011 58.4081 56.802 58.4119 56.8031C58.4157 56.8043 58.4223 56.8062 58.4304 56.8085C58.4443 56.8124 58.4768 56.8213 58.5187 56.8294C58.5717 56.8396 58.8209 56.8891 59.1122 56.7773C59.4725 56.6391 59.6507 56.3602 59.7256 56.1778C59.7862 56.0303 59.7984 55.9039 59.8009 55.8804C59.8064 55.8299 59.8083 55.7589 59.8069 55.7956C59.8062 55.8124 59.8047 55.8284 59.8034 55.8374L58.7337 55.689L57.6639 55.5405C57.6539 55.613 57.6502 55.6683 57.6486 55.7087C57.6466 55.7573 57.6484 55.6944 57.6533 55.649C57.6556 55.6282 57.6674 55.5037 57.7274 55.3576C57.8017 55.1765 57.9792 54.8984 58.3385 54.7606C58.6288 54.6492 58.8768 54.6986 58.9281 54.7085C58.9692 54.7165 59.0008 54.7251 59.0137 54.7288C59.0213 54.7309 59.0274 54.7327 59.0307 54.7337C59.0324 54.7342 59.0338 54.7346 59.0347 54.7349C59.0356 54.7352 59.0362 54.7354 59.0364 54.7354C59.0385 54.736 59.0168 54.7293 58.9912 54.7225C58.9634 54.7152 58.9296 54.7074 58.8908 54.7008C58.7231 54.6724 58.5642 54.6836 58.4226 54.7163L58.6659 55.7686ZM58.7337 55.689L59.8037 55.8356C59.8306 55.6389 59.8289 55.4538 59.8257 55.3265C59.8216 55.1653 59.817 55.112 59.8177 55.0258L58.7377 55.0167L57.6578 55.0076C57.6567 55.138 57.6647 55.3137 57.6664 55.381C57.6689 55.4821 57.6661 55.5248 57.6637 55.5423L58.7337 55.689ZM58.7377 55.0167L59.8177 55.0243C59.8193 54.7948 59.8212 54.5614 59.822 54.3283L58.742 54.3245L57.662 54.3207C57.6612 54.5489 57.6594 54.7769 57.6578 55.0091L58.7377 55.0167ZM58.742 54.3245L59.822 54.328C59.8234 53.8728 59.817 53.4191 59.8044 52.9666L58.7248 52.9967L57.6452 53.0269C57.6573 53.4597 57.6634 53.8909 57.662 54.3211L58.742 54.3245ZM58.7248 52.9967L59.8044 52.9666C59.778 52.0231 59.7509 51.0796 59.7231 50.1363L58.6436 50.168L57.564 50.1998C57.5918 51.1422 57.6189 52.0847 57.6452 53.0269L58.7248 52.9967ZM58.6436 50.168L59.7231 50.1361C59.6118 46.3721 59.4921 42.5962 59.3797 38.8348L58.3001 38.8671L57.2206 38.8994C57.3334 42.6722 57.4526 46.4301 57.564 50.1999L58.6436 50.168ZM58.3001 38.8671L59.3797 38.8348C59.2683 35.1089 59.1589 31.3785 59.0263 27.6485L57.947 27.6869L56.8677 27.7252C57 31.4477 57.1092 35.1712 57.2206 38.8994L58.3001 38.8671ZM57.947 27.6869L59.0263 27.6486C58.9961 26.7965 58.9681 26.0187 59.0307 25.2549L57.9543 25.1668L56.8779 25.0786C56.8031 25.9911 56.8383 26.8989 56.8677 27.7252L57.947 27.6869ZM57.9543 25.1668L59.0306 25.2551C59.0893 24.5405 59.2545 23.857 59.5276 23.1917L58.5286 22.7815L57.5295 22.3713C57.1729 23.2398 56.9549 24.1403 56.8779 25.0784L57.9543 25.1668ZM58.5286 22.7815L59.5276 23.1919C59.7629 22.6189 60.1142 22.0362 60.5354 21.6269C60.9489 21.225 61.354 21.0558 61.7623 21.0849L61.8392 20.0077L61.9162 18.9304C60.7081 18.8441 59.7311 19.3965 59.0301 20.0778C58.3367 20.7516 57.8408 21.6135 57.5295 22.3712L58.5286 22.7815ZM61.8392 20.0077L61.7623 21.0849C62.1309 21.1112 62.535 21.3201 62.9426 21.7449C63.347 22.1663 63.6767 22.7233 63.8828 23.2418L64.8865 22.8429L65.8901 22.4439C65.6011 21.7169 65.1333 20.9081 64.501 20.2492C63.8719 19.5937 62.9998 19.0078 61.9161 18.9304L61.8392 20.0077ZM64.8865 22.8429L63.8828 23.2418C64.1287 23.8602 64.2442 24.5426 64.3252 25.3203L65.3994 25.2085L66.4736 25.0967C66.3865 24.2597 66.2469 23.3414 65.8901 22.4439L64.8865 22.8429ZM65.3994 25.2085L64.3252 25.3201C64.4134 26.1692 64.4478 27.0305 64.4777 27.9253L65.5571 27.8892L66.6365 27.853C66.6066 26.9586 66.5705 26.0293 66.4736 25.0969L65.3994 25.2085ZM65.5571 27.8892L64.4777 27.9254C64.602 31.6245 64.7145 35.3238 64.8196 39.0243L65.8992 38.9937L66.9787 38.963C66.8736 35.2597 66.7609 31.5565 66.6365 27.8529L65.5571 27.8892ZM65.8992 38.9937L64.8196 39.0242C64.9252 42.7594 65.0229 46.5022 65.1423 50.2428L66.2217 50.2083L67.3012 50.1739C67.182 46.4385 67.0845 42.7046 66.9787 38.9631L65.8992 38.9937ZM66.2217 50.2083L65.1423 50.2427C65.2617 53.9889 65.3743 57.7347 65.4752 61.4806L66.5548 61.4515L67.6345 61.4224C67.5333 57.6722 67.4207 53.9227 67.3012 50.1739L66.2217 50.2083ZM66.5548 61.4515L65.4752 61.4807C65.5757 65.1998 65.7161 68.8725 65.6887 72.5526L66.7687 72.5607L67.8487 72.5687C67.8764 68.8398 67.734 65.1086 67.6345 61.4224L66.5548 61.4515ZM66.7687 72.5607L65.6887 72.5526C65.6625 76.0709 65.46 79.5896 65.1171 83.0982L66.192 83.2033L67.2668 83.3083C67.6153 79.7428 67.8219 76.159 67.8487 72.5687L66.7687 72.5607ZM66.192 83.2033L65.1171 83.0984C65.0287 84.0044 64.9308 84.9099 64.8247 85.8148L65.8973 85.9407L66.97 86.0665C67.0777 85.1485 67.177 84.229 67.2669 83.3081L66.192 83.2033ZM68.7787 67.4804L69.8585 67.4585C69.7915 64.1516 69.6762 60.845 69.5655 57.5505L68.4861 57.5868L67.4067 57.6231C67.5176 60.9228 67.6323 64.2129 67.6989 67.5022L68.7787 67.4804ZM68.4861 57.5868L69.5655 57.5507C69.435 53.6546 69.341 49.7767 69.2205 45.8689L68.141 45.9022L67.0615 45.9354C67.1812 49.817 67.2763 53.7305 67.4067 57.623L68.4861 57.5868ZM68.141 45.9022L69.2205 45.8689C69.0924 41.7115 68.975 37.5551 68.8526 33.3948L67.7731 33.4265L66.6936 33.4583C66.8158 37.6151 66.9333 41.7761 67.0615 45.9354L68.141 45.9022ZM67.7731 33.4265L68.8526 33.3947C68.7919 31.334 68.7238 29.2896 68.6907 27.2432L67.6109 27.2606L66.531 27.2781C66.5644 29.3432 66.6332 31.4091 66.6936 33.4583L67.7731 33.4265ZM67.6109 27.2606L68.6907 27.243C68.675 26.2798 68.6644 25.2151 68.4971 24.1544L67.4303 24.3227L66.3634 24.4911C66.5027 25.3736 66.5147 26.2788 66.531 27.2782L67.6109 27.2606ZM67.4303 24.3227L68.4971 24.1548C68.3435 23.1792 68.0554 22.2171 67.6603 21.32L66.6719 21.7552L65.6835 22.1905C66.0064 22.9239 66.24 23.7066 66.3634 24.4907L67.4303 24.3227ZM66.6719 21.7552L67.6602 21.3198C66.9522 19.713 65.7212 18.1613 63.9636 17.3582L63.5147 18.3405L63.0659 19.3228C64.2137 19.8473 65.1243 20.9215 65.6836 22.1907L66.6719 21.7552ZM63.5147 18.3405L63.9636 17.3582C61.9617 16.4435 59.744 16.844 58.1033 18.154L58.7772 18.998L59.4511 19.842C60.5195 18.9889 61.8767 18.7795 63.0659 19.3228L63.5147 18.3405ZM58.7772 18.998L58.1033 18.1541C57.9385 18.2856 57.7832 18.4218 57.6494 18.5387C57.5094 18.661 57.3906 18.7646 57.2702 18.8603L57.9425 19.7055L58.6149 20.5507C58.7806 20.4189 58.9363 20.2827 59.0708 20.1651C59.2114 20.0422 59.3304 19.9384 59.4512 19.8419L58.7772 18.998ZM57.9425 19.7055L59.0028 19.5C58.8844 18.8895 58.9131 18.2963 58.8829 17.4555L57.8036 17.4942L56.7243 17.533C56.7468 18.1595 56.7212 19.0802 56.8823 19.9111L57.9425 19.7055ZM57.8036 17.4942L58.8829 17.4559C58.854 16.6414 58.8282 15.8104 58.7914 14.9835L57.7125 15.0314L56.6335 15.0794C56.6697 15.8935 56.6949 16.7052 56.7243 17.5326L57.8036 17.4942ZM57.7125 15.0314L58.7914 14.9834C58.7242 13.4733 58.6282 11.7926 58.0214 10.1745L57.0102 10.5538L55.999 10.933C56.4707 12.1908 56.5655 13.5496 56.6335 15.0794L57.7125 15.0314ZM57.0102 10.5538L58.0215 10.1746C57.0019 7.45504 54.3256 4.63102 50.8368 4.89486L50.9182 5.97179L50.9996 7.04871C53.1447 6.88649 55.1576 8.68879 55.999 10.9329L57.0102 10.5538ZM50.9182 5.97179L50.8367 4.89487C49.9227 4.96405 48.9869 5.222 48.159 5.68354L48.6848 6.62688L49.2107 7.57021C49.7399 7.27521 50.3674 7.09657 50.9997 7.04871L50.9182 5.97179ZM48.6848 6.62688L48.1589 5.68357C47.3242 6.14895 46.6617 6.78906 46.1061 7.35947L46.8797 8.11302L47.6534 8.86657C48.1901 8.31555 48.6689 7.87228 49.2107 7.57018L48.6848 6.62688ZM46.8797 8.11302L47.9269 7.84855C47.6098 6.59331 47.2928 5.09392 46.4831 3.74325L45.5568 4.29853L44.6305 4.85381C45.2379 5.86712 45.483 6.99335 45.8326 8.37749L46.8797 8.11302ZM45.5568 4.29853L46.4831 3.7432C45.6801 2.40372 44.4611 1.20424 42.9633 0.533535L42.5219 1.51922L42.0806 2.5049C43.1124 2.96698 44.0173 3.83098 44.6305 4.85386L45.5568 4.29853ZM42.5219 1.51922L42.9634 0.533544C41.2271 -0.244003 39.2566 -0.166522 37.5851 0.732227L38.0965 1.68345L38.608 2.63466C39.6933 2.05111 40.9599 2.00304 42.0805 2.50489L42.5219 1.51922ZM38.0965 1.68345L37.5852 0.732172C36.2654 1.44157 35.1718 2.53093 34.4267 3.80229L35.3585 4.34835L36.2903 4.8944C36.8461 3.94596 37.6567 3.14599 38.6079 2.63472L38.0965 1.68345ZM35.3585 4.34835L34.4267 3.80225C33.5097 5.36702 33.2264 7.09285 32.9452 8.58116L34.0064 8.78168L35.0676 8.98219C35.368 7.39251 35.5999 6.07233 36.2903 4.89444L35.3585 4.34835ZM34.0064 8.78168L34.7398 7.98888C33.9626 7.26989 33.0512 6.46977 31.8006 6.04508L31.4533 7.06772L31.106 8.09036C31.884 8.35457 32.5044 8.86341 33.273 9.57448L34.0064 8.78168ZM31.4533 7.06772L31.8005 6.04505C30.5577 5.62309 29.2005 5.60662 27.9456 6.00916L28.2755 7.03755L28.6053 8.06593C29.4147 7.8063 30.2972 7.81575 31.1061 8.09038L31.4533 7.06772ZM28.2755 7.03755L27.9454 6.0092C25.6979 6.73049 24.035 8.64826 23.1937 10.6242L24.1874 11.0472L25.1811 11.4703C25.8484 9.90289 27.11 8.54583 28.6055 8.06589L28.2755 7.03755ZM24.1874 11.0472L23.1936 10.6243C22.1721 13.0245 22.2798 15.6963 22.1916 17.8667L23.2707 17.9106L24.3498 17.9545C24.449 15.5139 24.3587 13.4027 25.1811 11.4702L24.1874 11.0472ZM23.2707 17.9106L22.1916 17.8666C22.0859 20.4621 22.0025 23.0717 21.9053 25.6569L22.9845 25.6975L24.0638 25.7381C24.1618 23.1325 24.2441 20.5495 24.3498 17.9545L23.2707 17.9106ZM22.9845 25.6975L21.9053 25.657C21.7739 29.1589 21.6309 32.6582 21.4933 36.1633L22.5725 36.2056L23.6516 36.248C23.789 32.7478 23.9323 29.2422 24.0638 25.738L22.9845 25.6975ZM22.5725 36.2056L21.4933 36.1633C21.3464 39.9068 21.1699 43.6463 21.0029 47.3963L22.0818 47.4444L23.1607 47.4925C23.3274 43.75 23.5045 39.9991 23.6516 36.248L22.5725 36.2056ZM22.0818 47.4444L21.0029 47.3964C20.9001 49.7061 20.6608 52.0101 20.4062 54.3445C20.1527 56.669 19.8833 59.0296 19.7303 61.4027L20.8081 61.4722L21.8858 61.5416C22.035 59.2273 22.2979 56.9222 22.5535 54.5787C22.808 52.2453 23.0545 49.8791 23.1607 47.4924L22.0818 47.4444ZM20.8081 61.4722L19.7303 61.4027C19.7205 61.5555 19.7177 61.8086 19.7148 61.8881C19.7099 62.0234 19.7004 62.084 19.6939 62.1096L20.7404 62.3763L21.787 62.6431C21.8519 62.3882 21.867 62.1412 21.8734 61.9668C21.8818 61.7366 21.8771 61.6778 21.8858 61.5417L20.8081 61.4722ZM20.7404 62.3763L19.6941 62.1087C19.7017 62.0789 19.707 62.0767 19.6754 62.1427C19.6684 62.1573 19.6609 62.1726 19.6514 62.192C19.6425 62.2102 19.6314 62.2329 19.6203 62.256C19.5982 62.3018 19.5695 62.3629 19.5417 62.4311L20.542 62.8384L21.5422 63.2458C21.5568 63.2101 21.5655 63.1967 21.6231 63.0765C21.6652 62.9887 21.7388 62.8313 21.7868 62.644L20.7404 62.3763ZM20.542 62.8384L21.5281 62.3979C21.2445 61.7631 21.0303 61.1297 20.7544 60.396L19.7435 60.7762L18.7327 61.1564C18.9767 61.8053 19.2368 62.5647 19.5559 63.2789L20.542 62.8384ZM19.7435 60.7762L20.7544 60.396C20.4136 59.4898 20.0557 58.5887 19.6775 57.6946L18.6828 58.1153L17.6882 58.5361C18.054 59.4009 18.4012 60.2749 18.7327 61.1563L19.7435 60.7762ZM18.6828 58.1153L19.6775 57.6945C18.9844 56.0563 18.2229 54.4413 17.3764 52.8667L16.4252 53.3781L15.4739 53.8894C16.2847 55.3976 17.0177 56.9513 17.6882 58.5362L18.6828 58.1153ZM16.4252 53.3781L17.3764 52.8667C16.5461 51.3219 15.5883 49.7672 14.3385 48.4023L13.542 49.1316L12.7454 49.861C13.8208 51.0354 14.6798 52.4121 15.4739 53.8894L16.4252 53.3781ZM13.542 49.1316L14.3385 48.4023C13.1187 47.07 11.6434 45.9653 10.0127 45.1772L9.5428 46.1496L9.07288 47.122C10.4533 47.7891 11.7078 48.7276 12.7454 49.8609L13.542 49.1316ZM9.5428 46.1496L10.0128 45.1772C8.30215 44.3504 6.403 43.9129 4.46979 43.9959L4.51614 45.0749L4.56248 46.1539C6.10863 46.0875 7.65482 46.4366 9.07279 47.122L9.5428 46.1496ZM4.51614 45.0749L4.46977 43.9959C3.39741 44.042 2.344 44.2397 1.33847 44.5466L1.6538 45.5796L1.96913 46.6125C2.82093 46.3525 3.6933 46.1913 4.5625 46.1539L4.51614 45.0749ZM1.6538 45.5796L1.33876 44.5465C1.19271 44.5911 0.850466 44.6927 0.559539 44.9313C0.185454 45.2382 -0.0166457 45.6861 0.00117695 46.1979L1.08052 46.1603L2.15987 46.1228C2.16136 46.1656 2.15576 46.2557 2.10753 46.3643C2.05843 46.4749 1.9879 46.5534 1.92951 46.6013C1.87806 46.6435 1.84314 46.6563 1.85633 46.6506C1.86989 46.6448 1.90006 46.6336 1.96884 46.6126L1.6538 45.5796ZM1.08052 46.1603L0.00120091 46.1986C0.0208381 46.7525 0.174233 47.4303 0.224289 47.7556L1.29173 47.5914L2.35917 47.4272C2.26505 46.8154 2.17382 46.5163 2.15984 46.1221L1.08052 46.1603ZM1.29173 47.5914L0.224342 47.756C0.833575 51.7075 1.37621 55.6564 1.9573 59.6304L3.02594 59.4741L4.09458 59.3178C3.51737 55.3704 2.96975 51.3874 2.35912 47.4268L1.29173 47.5914ZM3.02594 59.4741L1.95731 59.6304C2.48709 63.2526 3.0109 66.8754 3.52311 70.4991L4.59248 70.348L5.66185 70.1968C5.14901 66.5686 4.62468 62.9423 4.09457 59.3178L3.02594 59.4741ZM4.59248 70.348L3.52313 70.4993C3.70833 71.8082 3.90362 73.0717 4.05542 74.3503L5.12789 74.223L6.20036 74.0957C6.04476 72.7851 5.84194 71.4696 5.66183 70.1966L4.59248 70.348ZM5.12789 74.223L4.05545 74.3505C4.16194 75.2459 4.25904 76.3765 4.38194 77.3315L5.45311 77.1937L6.52427 77.0558C6.39283 76.0344 6.32915 75.1785 6.20033 74.0954L5.12789 74.223ZM5.45311 77.1937L4.38197 77.3317C4.5028 78.2693 4.68282 79.1856 4.88313 80.081L5.93708 79.8452L6.99103 79.6094C6.79849 78.7487 6.63345 77.9029 6.52425 77.0556L5.45311 77.1937ZM5.93708 79.8452L4.88317 80.0812C5.28692 81.8844 5.75905 83.7061 6.35734 85.4835L7.38091 85.139L8.40447 84.7944C7.83798 83.1115 7.38469 81.3676 6.99099 79.6092L5.93708 79.8452ZM7.38091 85.139L6.35734 85.4835C6.91803 87.1492 7.63867 88.7926 8.59499 90.3177L9.50999 89.744L10.425 89.1703C9.57906 87.8212 8.92473 86.34 8.40447 84.7944L7.38091 85.139ZM9.50999 89.744L8.59488 90.3176C9.10755 91.1355 9.69071 91.9106 10.2183 92.6321L11.0901 91.9946L11.9619 91.3571C11.4081 90.5999 10.8856 89.9053 10.4251 89.1705L9.50999 89.744ZM11.0901 91.9946L10.2182 92.632C10.8152 93.4485 11.4196 94.2586 12.0265 95.0636L12.8889 94.4135L13.7513 93.7633C13.1485 92.9638 12.5508 92.1627 11.9619 91.3572L11.0901 91.9946ZM12.8889 94.4135L12.0266 95.0637C13.1256 96.5211 14.2443 97.9737 15.3434 99.4169L16.2026 98.7626L17.0618 98.1082C15.9524 96.6516 14.8469 95.2162 13.7512 93.7632L12.8889 94.4135ZM16.2026 98.7626L15.3433 99.4168C17.5267 102.284 19.6954 105.107 21.6655 108.064L22.5644 107.465L23.4632 106.866C21.4473 103.84 19.2323 100.959 17.0619 98.1083L16.2026 98.7626ZM22.5644 107.465L21.6656 108.064C22.5519 109.394 23.266 110.782 23.7629 112.272L24.7874 111.93L25.8119 111.588C25.2449 109.889 24.4378 108.329 23.4632 106.866L22.5644 107.465ZM24.7874 111.93L23.763 112.272C24.2943 113.864 24.5777 115.531 24.7687 117.266L25.8422 117.148L26.9157 117.03C26.7167 115.222 26.4117 113.385 25.8118 111.588L24.7874 111.93ZM25.8422 117.148L24.7687 117.266C25.1535 120.761 25.3356 124.272 25.4503 127.813L26.5297 127.778L27.6091 127.743C27.4937 124.178 27.3093 120.604 26.9157 117.03L25.8422 117.148ZM26.5297 127.778L25.4503 127.812C25.454 127.93 25.4578 128.047 25.4616 128.164C25.4654 128.282 25.4692 128.399 25.4729 128.516L26.5524 128.481L27.6318 128.447C27.6281 128.329 27.6243 128.212 27.6205 128.094C27.6167 127.977 27.6129 127.86 27.6092 127.743L26.5297 127.778ZM26.5524 128.481L25.473 128.517C25.473 128.516 25.473 128.518 25.4731 128.523C25.4731 128.528 25.4732 128.535 25.4732 128.545C25.4732 128.56 25.4731 128.593 25.4734 128.623C25.474 128.684 25.4762 128.789 25.4932 128.906C25.5239 129.12 25.6399 129.617 26.1514 129.91L26.6875 128.972L27.2235 128.035C27.3872 128.128 27.4953 128.261 27.5577 128.381C27.6135 128.488 27.6275 128.574 27.6311 128.598C27.6349 128.624 27.6336 128.633 27.6333 128.602C27.6331 128.585 27.6332 128.573 27.6332 128.544C27.6332 128.52 27.6331 128.484 27.6318 128.445L26.5524 128.481ZM26.6875 128.972L26.1505 129.909C26.4496 130.081 26.7455 130.091 26.8681 130.091C26.9424 130.092 27.008 130.088 27.0478 130.085C27.0626 130.084 27.0927 130.082 27.0978 130.082C27.1039 130.081 27.1081 130.081 27.1112 130.081C27.1144 130.08 27.1156 130.08 27.1153 130.08L27.0673 129.001L27.0194 127.923C26.9914 127.924 26.9656 127.925 26.9475 127.927C26.9217 127.929 26.9197 127.929 26.9017 127.93C26.8761 127.932 26.8737 127.931 26.8803 127.931C26.8865 127.931 26.9222 127.932 26.975 127.942C27.028 127.952 27.1199 127.975 27.2245 128.035L26.6875 128.972ZM27.0673 129.001L27.1154 130.08C27.3561 130.07 27.5968 130.061 27.8377 130.053L27.8038 128.974L27.77 127.894C27.5196 127.902 27.2694 127.911 27.0193 127.923L27.0673 129.001ZM27.8038 128.974L27.8384 130.053C28.3177 130.038 28.7971 130.028 29.2764 130.023L29.2661 128.943L29.2558 127.863C28.7603 127.868 28.2648 127.878 27.7693 127.894L27.8038 128.974ZM29.2661 128.943L29.2762 130.023C31.3199 130.004 33.3606 130 35.4123 129.991L35.4071 128.911L35.4019 127.831C33.3594 127.84 31.306 127.844 29.2559 127.863L29.2661 128.943ZM35.4071 128.911L35.4124 129.991C38.2135 129.977 41.0145 129.964 43.816 129.951L43.8109 128.871L43.8057 127.791C41.0049 127.804 38.203 127.817 35.4018 127.831L35.4071 128.911ZM43.8109 128.871L43.8161 129.951C45.4881 129.943 47.1539 129.931 48.8212 129.928L48.8191 128.848L48.817 127.768C47.1455 127.771 45.4724 127.783 43.8056 127.791L43.8109 128.871ZM48.8191 128.848L48.8212 129.928C50.8564 129.924 52.8888 129.924 54.9264 129.922L54.9251 128.842L54.9238 127.762C52.8907 127.764 50.8525 127.764 48.8169 127.768L48.8191 128.848ZM54.9251 128.842L54.9261 129.922C55.9422 129.921 56.9583 129.92 57.9742 129.918L57.9727 128.838L57.9712 127.758C56.9556 127.76 55.9398 127.761 54.924 127.762L54.9251 128.842ZM57.9727 128.838L57.9744 129.918C58.2282 129.918 58.4821 129.917 58.736 129.917C58.9899 129.917 59.244 129.916 59.498 129.916L59.4963 128.836L59.4946 127.756C59.2408 127.756 58.9869 127.757 58.733 127.757C58.4791 127.757 58.225 127.758 57.971 127.758L57.9727 128.838ZM59.4963 128.836L59.4982 129.916C59.7125 129.916 59.9848 129.918 60.2564 129.901L60.1903 128.823L60.1241 127.746C59.9336 127.757 59.7435 127.756 59.4944 127.756L59.4963 128.836ZM60.1903 128.823L60.2613 129.901C60.2349 129.903 60.2146 129.903 60.2072 129.903C60.1979 129.903 60.1911 129.903 60.1886 129.903C60.1847 129.903 60.1826 129.903 60.1898 129.903C60.1979 129.904 60.2266 129.904 60.2573 129.904C60.2821 129.904 60.3447 129.904 60.4179 129.895C60.4529 129.891 60.5245 129.881 60.6103 129.855C60.6545 129.842 60.7214 129.82 60.7979 129.781C60.8704 129.744 60.9895 129.673 61.1045 129.549L60.3114 128.816L59.5182 128.083C59.6317 127.96 59.7486 127.891 59.8184 127.855C59.8922 127.818 59.956 127.796 59.9964 127.784C60.0749 127.761 60.1372 127.753 60.1617 127.75C60.1919 127.746 60.2147 127.745 60.2255 127.745C60.2375 127.744 60.2459 127.744 60.2489 127.744C60.2532 127.744 60.255 127.744 60.2407 127.744C60.2366 127.744 60.2243 127.744 60.2119 127.743C60.2076 127.743 60.1671 127.743 60.1192 127.746L60.1903 128.823ZM60.3114 128.816L61.1088 129.544C61.2202 129.422 61.2806 129.301 61.312 129.227C61.3452 129.148 61.3638 129.08 61.3746 129.033C61.3956 128.941 61.4022 128.862 61.405 128.817C61.4107 128.724 61.4072 128.638 61.4045 128.586C61.4015 128.529 61.3969 128.475 61.394 128.441C61.3887 128.379 61.3915 128.406 61.3923 128.437L60.3126 128.464L59.2329 128.49C59.2339 128.531 59.2372 128.57 59.2379 128.579C59.2392 128.594 59.2409 128.614 59.242 128.627C59.2447 128.658 59.2465 128.681 59.2475 128.701C59.2489 128.726 59.2472 128.716 59.2491 128.685C59.2499 128.671 59.2533 128.619 59.2692 128.55C59.2774 128.514 59.2931 128.455 59.3228 128.385C59.3507 128.319 59.4071 128.204 59.5139 128.087L60.3114 128.816ZM60.3126 128.464L61.3923 128.439C61.3465 126.421 61.3219 124.405 61.3185 122.385L60.2385 122.387L59.1585 122.389C59.1619 124.424 59.1867 126.455 59.2329 128.488L60.3126 128.464ZM60.2385 122.387L61.3185 122.385C61.3166 121.381 61.3158 120.377 61.3154 119.372L60.2354 119.372L59.1554 119.373C59.1558 120.378 59.1566 121.384 59.1585 122.389L60.2385 122.387ZM60.2354 119.372L61.3154 119.372C61.3152 118.873 61.315 118.374 61.315 117.876H60.235H59.155C59.155 118.375 59.1552 118.874 59.1554 119.373L60.2354 119.372ZM60.235 117.876H61.315C61.315 117.307 61.2877 116.928 61.3176 116.493L60.2401 116.419L59.1626 116.345C59.1264 116.873 59.155 117.479 59.155 117.876H60.235ZM60.2401 116.419L61.3175 116.493C61.3361 116.223 61.4392 115.964 61.6229 115.468L60.6101 115.093L59.5972 114.718C59.4626 115.082 59.2077 115.689 59.1626 116.345L60.2401 116.419ZM60.6101 115.093L61.623 115.467C61.7834 115.034 61.9791 114.532 62.1465 114.062L61.1293 113.7L60.112 113.337C59.9465 113.801 59.7806 114.222 59.5971 114.718L60.6101 115.093ZM61.1293 113.7L62.1463 114.063C62.3037 113.622 62.4529 113.168 62.5951 112.75L61.5725 112.403L60.55 112.055C60.3981 112.502 60.2622 112.916 60.1122 113.336L61.1293 113.7ZM61.5725 112.403L62.5951 112.75C63.2419 110.848 63.8913 108.935 64.5076 107.01L63.4791 106.681L62.4505 106.351C61.8409 108.255 61.1976 110.15 60.55 112.055L61.5725 112.403ZM63.4791 106.681L64.5077 107.01C65.1137 105.116 65.7039 103.202 66.2272 101.265L65.1845 100.983L64.1419 100.702C63.6312 102.592 63.0525 104.47 62.4505 106.352L63.4791 106.681ZM65.1845 100.983L66.2272 101.265C66.7638 99.2784 67.1963 97.2745 67.5817 95.2745L66.5212 95.0702L65.4607 94.8658C65.0811 96.8361 64.6599 98.7842 64.1419 100.701L65.1845 100.983ZM66.5212 95.0702L67.5817 95.2745C68.3044 91.5237 68.8973 87.7551 69.2922 83.9417L68.218 83.8304L67.1437 83.7192C66.7566 87.4577 66.1742 91.163 65.4607 94.8658L66.5212 95.0702ZM68.218 83.8304L69.2922 83.9417C69.6572 80.4196 69.8671 76.8671 69.9276 73.328L68.8478 73.3095L67.7679 73.2911C67.7085 76.7698 67.5021 80.2603 67.1437 83.7191L68.218 83.8304ZM68.8478 73.3095L69.9276 73.328C69.9612 71.3595 69.8921 69.3791 69.8585 67.4614L68.7787 67.4804L67.6989 67.4993C67.7333 69.4676 67.8007 71.3724 67.7679 73.2911L68.8478 73.3095Z" fill="black"/>
<path fill-rule="evenodd" clip-rule="evenodd" d="M65.8973 85.9407C65.4753 89.5152 64.912 93.0753 64.1342 96.5907C63.421 99.8139 62.4992 102.986 61.498 106.13C60.9602 107.82 60.3952 109.5 59.8086 111.173C59.4959 112.065 59.177 112.954 58.853 113.841C58.6841 114.303 58.5036 114.762 58.3414 115.226C58.1942 115.649 58.1564 116.092 58.1592 116.537C58.1718 118.44 58.179 120.345 58.1867 122.249C58.1906 123.205 58.1954 124.16 58.1989 125.115C58.2009 125.581 58.2366 126.061 58.2021 126.525C58.1995 126.559 58.1979 126.674 58.1774 126.707C58.1418 126.764 58.1827 126.72 58.1296 126.752C58.0717 126.788 57.8986 126.754 57.8332 126.754C57.6987 126.755 57.5645 126.755 57.4302 126.756C53.5244 126.773 49.619 126.791 45.7133 126.811C41.7883 126.831 37.8636 126.85 33.9386 126.869C32.9692 126.874 32 126.878 31.0309 126.883C30.5459 126.885 30.0611 126.887 29.5763 126.89C29.3337 126.891 29.0913 126.892 28.8487 126.893C28.8182 126.893 28.6738 126.916 28.641 126.893C28.6053 126.87 28.6179 126.763 28.6153 126.713C28.5146 124.843 28.4192 122.973 28.2882 121.105C28.1623 119.309 28.0055 117.513 27.7449 115.73C27.4983 114.041 27.1909 112.338 26.6069 110.729C26.005 109.072 25.1416 107.52 24.1275 106.081C23.0188 104.508 21.8669 102.965 20.7202 101.42C18.434 98.3403 16.1255 95.2781 13.8133 92.2182C12.8278 90.9137 11.8298 89.6215 11.0346 88.1888C10.2785 86.8264 9.6728 85.3848 9.17019 83.9112C8.05118 80.6297 7.44895 77.2074 7.13021 73.7615C6.95363 71.8542 6.6272 69.967 6.35403 68.0721C6.07539 66.137 5.79695 64.2019 5.5175 62.267C4.98533 58.5825 4.44952 54.8988 3.91532 51.2147C3.80496 50.4533 3.695 49.6921 3.58504 48.9307C3.53503 48.5859 3.48521 48.2408 3.43519 47.8958C3.41575 47.7609 3.39854 47.6258 3.38437 47.49C3.37991 47.4474 3.34326 47.3344 3.36229 47.2933C3.37505 47.2662 3.38659 47.2846 3.41798 47.2662C3.4925 47.2218 3.65551 47.2158 3.74077 47.2012C3.84971 47.1826 3.95906 47.1668 4.06902 47.1542C7.10328 46.8079 10.0053 48.3425 11.9912 50.5392C14.2521 53.0403 15.6291 56.2473 16.9156 59.3235C18.2679 62.5566 19.3942 65.8808 20.3691 69.2462C20.8996 71.077 21.3716 72.9227 21.8366 74.771C21.9536 75.2369 22.0709 75.7027 22.1891 76.1682C22.2438 76.3843 22.2989 76.5999 22.3544 76.8156C22.4151 77.0519 22.4499 77.3275 22.5496 77.5501C22.632 77.7343 22.7869 77.7682 22.9635 77.8303C23.1781 77.9061 23.3918 77.9846 23.6044 78.0658C24.0049 78.2191 24.4018 78.3821 24.7945 78.5537C27.9124 79.9175 30.75 81.8352 33.4161 83.9333C34.0423 84.4262 34.6601 84.9294 35.2722 85.4391C35.3972 85.543 35.5628 85.7479 35.7129 85.8078C35.8 85.8424 35.7643 85.8516 35.835 85.7748C35.8743 85.7323 35.9136 85.6896 35.9528 85.6468C36.0164 85.5778 36.0802 85.5085 36.1438 85.4393C36.4463 85.1104 36.7481 84.7809 37.0496 84.4515C35.1386 82.877 33.2363 81.3139 31.1763 79.9347C29.4109 78.7529 27.5612 77.6916 25.6154 76.835C25.4054 76.7427 25.1944 76.6526 24.9822 76.5649C24.7546 76.4709 24.4563 76.4078 24.2862 76.2209C24.1141 76.0321 24.0845 75.7563 24.0209 75.5186C23.9369 75.2055 23.8531 74.8923 23.7684 74.5794C23.443 73.3759 23.1176 72.1723 22.8343 70.9581C22.694 70.3565 22.5771 69.7773 22.5767 69.1569C22.5761 68.5538 22.6223 67.95 22.6462 67.3475C22.6952 66.1108 22.7424 64.8744 22.8001 63.6381C22.9185 61.1048 23.1391 58.591 23.4161 56.0709C23.6749 53.7176 23.8535 51.3555 24.0165 48.9937C24.3328 44.4126 24.5065 39.8205 24.6991 35.2326C24.8984 30.4866 25.0701 25.7396 25.2392 20.9924C25.2835 19.7442 25.3309 18.4964 25.3749 17.2482C25.4188 16.0014 25.451 14.7404 25.6225 13.5032C25.7584 12.5237 26.1103 11.581 26.6836 10.7729C27.2806 9.93127 28.1017 9.17777 29.1322 8.94165C31.1763 8.47347 32.8487 10.2044 33.5725 11.9366C33.9866 12.9277 34.1589 14.0044 34.2049 15.0725C34.2583 16.3173 34.2282 17.5688 34.2306 18.8143C34.2369 22.1064 34.2379 25.3984 34.2429 28.6905C34.2488 32.6858 34.2652 36.6811 34.281 40.6762C34.2885 42.5664 34.2968 44.4563 34.3045 46.3462C34.3067 46.9189 34.3092 47.4916 34.3114 48.0642C34.3118 48.1562 34.2788 48.5513 34.3298 48.597C34.3456 48.6112 34.4317 48.597 34.4543 48.597H34.8403H36.206C36.2058 47.6408 36.2054 46.6846 36.205 45.7282C36.2041 43.7062 36.2031 41.6841 36.2023 39.6621C36.2017 37.7924 36.2009 35.923 36.2001 34.0533C36.1995 32.3822 36.1975 30.711 36.1948 29.0398C36.1886 25.0744 36.1847 21.1089 36.1701 17.1435C36.1636 15.3139 36.1442 13.4847 36.1282 11.6552C36.1122 9.79944 35.9865 7.84937 36.7618 6.11374C37.41 4.66222 38.7251 3.19551 40.4253 3.16129C42.1698 3.12626 43.4773 4.62172 44.1577 6.08175C44.9657 7.81596 44.8669 9.72999 44.9003 11.5964C44.938 13.7087 44.9694 15.8212 45.0001 17.9337C45.0394 20.6435 45.0838 23.3532 45.1293 26.063C45.2018 30.3728 45.2715 34.6826 45.3411 38.9927C45.3758 41.1367 45.4145 43.2806 45.4535 45.4247C45.49 47.4041 45.4876 49.3888 45.5641 51.3672C45.5688 51.4897 45.5463 51.48 45.6263 51.5059C45.6919 51.527 45.8037 51.5059 45.8713 51.5059H46.6242H47.2957C47.3182 51.5059 47.4089 51.5201 47.4291 51.5059C47.481 51.4691 47.4372 50.9711 47.438 50.8911C47.4583 48.7558 47.3781 46.6156 47.3412 44.4804C47.2955 41.8145 47.2491 39.1488 47.2011 36.4831C47.129 32.4784 47.0513 28.474 46.9842 24.4694C46.9632 23.2288 46.9433 21.9883 46.9223 20.748C46.904 19.6855 46.8844 18.6232 46.8615 17.5611C46.8396 16.538 46.7886 15.5124 46.803 14.4889C46.8303 12.5804 47.3234 10.687 48.6804 9.28003C49.2859 8.65208 50.0337 8.15879 50.9174 8.05815C51.7926 7.95831 52.6463 8.26713 53.3263 8.81145C53.9978 9.34908 54.5429 10.0676 54.9149 10.8411C55.3074 11.6578 55.4641 12.5176 55.5358 13.4141C55.7055 15.5278 55.7233 17.6532 55.8015 19.7716C55.8979 22.3951 55.9939 25.0189 56.0763 27.6429C56.2101 31.9094 56.3272 36.1765 56.4568 40.443C56.5503 43.524 56.6388 46.6052 56.7324 49.6863C56.7939 51.7139 56.864 53.7399 56.864 55.7686H57.8186H58.4563C58.5201 55.7686 58.6033 55.7829 58.6659 55.7686C58.7517 55.7487 58.7161 55.8159 58.7337 55.689C58.7631 55.4747 58.7359 55.2334 58.7377 55.0167C58.7394 54.7858 58.7412 54.5552 58.742 54.3245C58.7434 53.8819 58.7371 53.4394 58.7248 52.9967C58.6985 52.0539 58.6713 51.1109 58.6436 50.168C58.5322 46.4011 58.4127 42.6342 58.3001 38.8671C58.1888 35.1401 58.0794 31.4131 57.947 27.6869C57.9172 26.8477 57.8856 26.0049 57.9543 25.1668C58.0221 24.3404 58.2137 23.5484 58.5286 22.7815C59.0751 21.4509 60.2229 19.8922 61.8392 20.0077C63.2916 20.1113 64.3913 21.5973 64.8865 22.8429C65.1878 23.6008 65.3153 24.4011 65.3994 25.2085C65.4919 26.0993 65.5272 26.9945 65.5571 27.8892C65.6815 31.5905 65.7941 35.2918 65.8992 38.9937C66.0049 42.732 66.1025 46.4704 66.2217 50.2083C66.3412 53.9558 66.4538 57.7034 66.5548 61.4515C66.6549 65.1542 66.7962 68.8561 66.7687 72.5607C66.7422 76.115 66.5376 79.6662 66.192 83.2033C66.1029 84.1167 66.0042 85.0292 65.8973 85.9407ZM68.7787 67.4804C68.7119 64.1822 68.5969 60.8839 68.4861 57.5868C68.3557 53.6925 68.2611 49.7968 68.141 45.9022C68.0128 41.7438 67.8954 37.5851 67.7731 33.4265C67.7125 31.3716 67.6441 29.3164 67.6109 27.2606C67.5949 26.2793 67.5835 25.2943 67.4303 24.3227C67.2917 23.4429 67.0309 22.5705 66.6719 21.7552C66.0383 20.3173 64.9675 19.0043 63.5147 18.3405C61.9192 17.6115 60.1318 17.9165 58.7772 18.998C58.4917 19.226 58.2287 19.4779 57.9425 19.7055C57.8028 18.9848 57.8299 18.2279 57.8036 17.4942C57.7744 16.6733 57.7489 15.852 57.7125 15.0314C57.6448 13.5115 57.5495 11.9917 57.0102 10.5538C56.0797 8.07192 53.7352 5.75876 50.9182 5.97179C50.1451 6.03031 49.3634 6.24861 48.6848 6.62688C47.9965 7.01061 47.4259 7.5523 46.8797 8.11302C46.5464 6.79333 46.2654 5.48052 45.5568 4.29853C44.8487 3.11735 43.7868 2.08561 42.5219 1.51922C41.0935 0.879521 39.4749 0.942295 38.0965 1.68345C36.9611 2.29378 36.0089 3.23844 35.3585 4.34835C34.5548 5.71968 34.2972 7.24268 34.0064 8.78168C33.2335 8.06665 32.4676 7.41217 31.4533 7.06772C30.4274 6.71942 29.3076 6.70646 28.2755 7.03755C26.404 7.63816 24.9417 9.27558 24.1874 11.0472C23.2654 13.2136 23.3644 15.6051 23.2707 17.9106C23.165 20.5058 23.0821 23.1021 22.9845 25.6975C22.8531 29.2006 22.71 32.703 22.5725 36.2056C22.4254 39.9529 22.2487 43.6981 22.0818 47.4444C21.8728 52.1408 21.1102 56.7847 20.8081 61.4722C20.7894 61.7611 20.8119 62.0959 20.7404 62.3763C20.7001 62.5339 20.6038 62.6868 20.542 62.8384C20.2407 62.1639 20.0035 61.4675 19.7435 60.7762C19.4074 59.8824 19.0548 58.9948 18.6828 58.1153C18.001 56.5038 17.2538 54.9195 16.4252 53.3781C15.6129 51.867 14.7045 50.4013 13.542 49.1316C12.4132 47.8988 11.0484 46.8772 9.5428 46.1496C7.97848 45.3935 6.25582 45.0002 4.51614 45.0749C3.54535 45.1167 2.58247 45.2961 1.6538 45.5796C1.33972 45.6754 1.06756 45.7881 1.08052 46.1603C1.09733 46.6344 1.21964 47.1228 1.29173 47.5914C1.90166 51.5475 2.44679 55.5134 3.02594 59.4741C3.55588 63.0974 4.07995 66.722 4.59248 70.348C4.77514 71.6389 4.97419 72.9284 5.12789 74.223C5.24554 75.2122 5.32594 76.2055 5.45311 77.1937C5.56813 78.0861 5.74066 78.9672 5.93708 79.8452C6.3358 81.626 6.79852 83.4088 7.38091 85.139C7.92138 86.7446 8.60887 88.3069 9.50999 89.744C9.9966 90.5204 10.5494 91.2553 11.0901 91.9946C11.683 92.8056 12.284 93.6112 12.8889 94.4135C13.9863 95.8686 15.0984 97.3127 16.2026 98.7626C18.3795 101.622 20.5714 104.473 22.5644 107.465C23.4948 108.862 24.2554 110.336 24.7874 111.93C25.353 113.624 25.6472 115.377 25.8422 117.148C26.2314 120.682 26.4147 124.225 26.5297 127.778C26.5372 128.012 26.5449 128.247 26.5524 128.481C26.5577 128.641 26.5281 128.881 26.6875 128.972C26.7928 129.033 26.9535 129.007 27.0673 129.001C27.3128 128.991 27.5582 128.981 27.8038 128.974C28.2913 128.958 28.7787 128.948 29.2661 128.943C31.313 128.924 33.36 128.92 35.4071 128.911C38.2083 128.897 41.0097 128.884 43.8109 128.871C45.4803 128.863 47.1497 128.851 48.8191 128.848C50.8544 128.844 52.8897 128.844 54.9251 128.842C55.941 128.841 56.957 128.84 57.9727 128.838C58.4806 128.837 58.9884 128.837 59.4963 128.836C59.728 128.836 59.9592 128.838 60.1903 128.823C60.2087 128.822 60.299 128.829 60.3114 128.816C60.3476 128.776 60.3138 128.513 60.3126 128.464C60.2666 126.438 60.2419 124.414 60.2385 122.387C60.2366 121.382 60.2358 120.377 60.2354 119.372C60.2352 118.873 60.235 118.374 60.235 117.876C60.235 117.393 60.2071 116.9 60.2401 116.419C60.2719 115.956 60.4509 115.523 60.6101 115.093C60.782 114.628 60.9628 114.166 61.1293 113.7C61.283 113.269 61.4255 112.835 61.5725 112.403C62.2197 110.499 62.8661 108.595 63.4791 106.681C64.0831 104.793 64.6675 102.897 65.1845 100.983C65.7118 99.0313 66.1387 97.0553 66.5212 95.0702C67.2393 91.3434 67.827 87.6064 68.218 83.8304C68.5796 80.3399 68.7878 76.8184 68.8478 73.3095C68.881 71.3659 68.8127 69.4233 68.7787 67.4804Z" fill="white"/>
</svg>
