<svg width="59" height="50" viewBox="0 0 59 50" fill="none" xmlns="http://www.w3.org/2000/svg">
<path fill-rule="evenodd" clip-rule="evenodd" d="M17.2425 18.4907C16.5944 18.3912 16.0878 18.5982 15.9795 19.2904C15.8775 19.9633 16.3021 20.2713 16.9101 20.4794C17.6566 20.7378 18.4574 20.9809 19.0679 21.4479C20.0164 22.1783 20.8419 23.0706 21.7466 23.9414L23.182 22.1572C22.6171 21.7621 21.8308 21.2707 21.3497 20.7823C20.1931 19.606 18.8933 18.7396 17.2425 18.4907Z" fill="white"/>
<path fill-rule="evenodd" clip-rule="evenodd" d="M13.5397 36.5791C11.8014 36.3808 10.1947 35.7299 8.87123 34.7348C8.8468 34.7034 8.82384 34.6659 8.79249 34.6407C6.99186 32.7275 3.86409 32.3539 2.18812 32.2992L2.14146 21.7433C3.17846 21.4363 4.18995 20.684 5.15041 19.4979C5.42123 19.1648 5.65816 18.8349 5.85608 18.5287C5.87504 18.5233 5.89435 18.5127 5.91112 18.5087C5.93299 18.4504 5.95596 18.395 5.98111 18.3399C6.35034 17.7538 6.56358 17.3211 6.57706 17.2931C6.60003 17.2442 6.62153 17.1939 6.63721 17.1422C7.27253 16.232 8.15097 15.4932 9.24192 14.9147C10.1827 14.4128 11.1114 13.8886 12.0041 13.3098C13.5751 12.2932 15.2427 11.8653 17.0827 12.3191C18.8173 12.7503 20.4813 13.3076 21.7778 14.6614C22.9621 15.8978 24.2637 17.3281 25.4582 18.5528L26.5852 16.4912C25.7319 15.608 24.8786 14.708 23.9914 13.78H28.3457L29.7658 11.593H22.1416C21.0721 11.4698 20.0169 11.2194 18.9639 10.7966C16.0191 9.61452 13.1556 9.94257 10.5508 11.8788C10.1262 12.1945 9.66219 12.4842 9.17595 12.6942C7.36511 13.4866 5.97455 14.579 5.00315 15.9492C4.8599 16.0512 4.73707 16.1883 4.65433 16.3563C4.22713 17.2384 2.63901 19.7582 1.06327 19.7651C0.471688 19.7677 -0.00398434 20.2481 2.51622e-05 20.8386L0.0550647 33.3803C0.0561582 33.673 0.177172 33.9562 0.394414 34.1552C0.611292 34.3571 0.896331 34.4574 1.19449 34.4384C2.36709 34.3666 5.74199 34.5197 7.24191 36.1078C7.37094 36.2434 7.52695 36.3386 7.69644 36.3892C9.07279 37.4302 10.674 38.1523 12.338 38.4301L13.5397 36.5791Z" fill="white"/>
<mask id="mask0_6_17169" style="mask-type:luminance" maskUnits="userSpaceOnUse" x="33" y="12" width="26" height="27">
<path fill-rule="evenodd" clip-rule="evenodd" d="M33.98 12.0644H58.5614V38.5661H33.98V12.0644Z" fill="white"/>
</mask>
<g mask="url(#mask0_6_17169)">
<path fill-rule="evenodd" clip-rule="evenodd" d="M54.3697 17.7896H52.9467C53.2726 17.1936 53.4585 16.5106 53.4585 15.7848C53.4585 14.1672 52.5356 12.7631 51.1902 12.0644L49.9877 13.9164C50.7375 14.2069 51.2715 14.9337 51.2715 15.7848C51.2715 16.8904 50.3719 17.7896 49.2667 17.7896H47.4723L46.0522 19.9766H49.2667H54.3697C55.4749 19.9766 56.3745 20.8758 56.3745 21.9813C56.3745 23.0869 55.4749 23.9861 54.3697 23.9861H48.1732H43.4482L42.0281 26.1731H42.8104H48.1732C49.2784 26.1731 50.178 27.0727 50.178 28.1778C50.178 29.2834 49.2784 30.1826 48.1732 30.1826H39.7897H39.4242L38.0041 32.3696H39.7897C40.8949 32.3696 41.7945 33.2692 41.7945 34.3743C41.7945 35.4799 40.8949 36.3791 39.7897 36.3791H35.4001L33.98 38.5661H39.7897C42.101 38.5661 43.9815 36.6856 43.9815 34.3743C43.9815 33.6486 43.7956 32.9655 43.4697 32.3696H48.1732C50.4845 32.3696 52.365 30.4891 52.365 28.1778C52.365 27.4521 52.1791 26.7691 51.8532 26.1731H54.3697C56.681 26.1731 58.5615 24.2926 58.5615 21.9813C58.5615 19.67 56.681 17.7896 54.3697 17.7896Z" fill="white"/>
</g>
<path fill-rule="evenodd" clip-rule="evenodd" d="M47.634 8.39894C46.8806 9.12283 45.8571 9.56825 44.7297 9.56825C42.4147 9.56825 40.5379 7.69144 40.5379 5.3765C40.5379 4.87641 40.6254 4.39673 40.7862 3.95204L36.5248 1.18475L26.0177 17.3642L26.3731 17.8479C27.6441 19.0759 27.6798 21.1014 26.4522 22.3728C25.3813 23.4816 23.6 23.8089 22.3454 23.0194L12.1069 38.7851L16.213 41.4518C16.9745 40.671 18.0381 40.1863 19.2147 40.1863C21.5296 40.1863 23.4064 42.0627 23.4064 44.378C23.4064 44.9262 23.3011 45.45 23.1097 45.93L27.3919 48.7112L51.8097 11.1105L47.634 8.39894Z" stroke="white" stroke-width="2.36925" stroke-linejoin="round"/>
<path fill-rule="evenodd" clip-rule="evenodd" d="M23.0204 34.2468L22.0789 33.6353L20 36.8365L20.941 37.4479L21.6443 36.3654L27.2937 40.0337L27.9665 38.998L22.3171 35.3297L23.0204 34.2468Z" fill="white"/>
<path fill-rule="evenodd" clip-rule="evenodd" d="M23.0204 34.2468L22.0789 33.6353L20 36.8365L20.941 37.4479L21.6443 36.3654L27.2937 40.0337L27.9665 38.998L22.3171 35.3297L23.0204 34.2468Z" stroke="white" stroke-width="0.8019"/>
<path fill-rule="evenodd" clip-rule="evenodd" d="M22.874 32.4113L29.4644 36.6911L30.1368 35.6554L23.5464 31.3757L22.874 32.4113Z" fill="white"/>
<path fill-rule="evenodd" clip-rule="evenodd" d="M22.874 32.4113L29.4644 36.6911L30.1368 35.6554L23.5464 31.3757L22.874 32.4113Z" stroke="white" stroke-width="0.8019"/>
<path fill-rule="evenodd" clip-rule="evenodd" d="M31.4957 30.0998L30.62 29.5313L29.9841 30.5104L30.926 31.1219C31.3963 31.4274 31.432 31.7449 31.2179 32.0741C31.0038 32.4041 30.6994 32.5007 30.2287 32.1952L26.6699 29.8841C26.1988 29.5782 26.1551 29.255 26.3688 28.9254C26.5829 28.5959 26.896 28.5049 27.3671 28.8108L28.0728 29.2691L28.7087 28.2899L28.0688 27.8746C27.0139 27.1893 26.0689 27.3253 25.4085 28.3421C24.7485 29.3589 25.0083 30.2775 26.0632 30.9623L29.4902 33.1879C30.5451 33.8728 31.4897 33.7368 32.1505 32.72C32.8104 31.7032 32.5506 30.7847 31.4957 30.0998Z" fill="white"/>
<path fill-rule="evenodd" clip-rule="evenodd" d="M31.4957 30.0998L30.62 29.5313L29.9841 30.5104L30.926 31.1219C31.3963 31.4274 31.432 31.7449 31.2179 32.0741C31.0038 32.4041 30.6994 32.5007 30.2287 32.1952L26.6699 29.8841C26.1988 29.5782 26.1551 29.255 26.3688 28.9254C26.5829 28.5959 26.896 28.5049 27.3671 28.8108L28.0728 29.2691L28.7087 28.2899L28.0688 27.8746C27.0139 27.1893 26.0689 27.3253 25.4085 28.3421C24.7485 29.3589 25.0083 30.2775 26.0632 30.9623L29.4902 33.1879C30.5451 33.8728 31.4897 33.7368 32.1505 32.72C32.8104 31.7032 32.5506 30.7847 31.4957 30.0998Z" stroke="white" stroke-width="0.8019"/>
<path fill-rule="evenodd" clip-rule="evenodd" d="M29.624 22.0172L28.9512 23.0529L30.9427 26.2733L28.0707 24.4085L27.3979 25.4441L33.9888 29.7243L34.6612 28.6886L32.6376 27.3739L32.2422 26.6626L35.5236 27.3611L36.2144 26.297L31.626 25.3651L29.624 22.0172Z" fill="white"/>
<path fill-rule="evenodd" clip-rule="evenodd" d="M29.624 22.0172L28.9512 23.0529L30.9427 26.2733L28.0707 24.4085L27.3979 25.4441L33.9888 29.7243L34.6612 28.6886L32.6376 27.3739L32.2422 26.6626L35.5236 27.3611L36.2144 26.297L31.626 25.3651L29.624 22.0172Z" stroke="white" stroke-width="0.8019"/>
<path fill-rule="evenodd" clip-rule="evenodd" d="M36.7528 23.407L34.8227 22.1537L35.7457 20.7323L34.8042 20.1209L33.8812 21.5422L32.0449 20.3498L33.2064 18.5612L32.265 17.9497L30.4307 20.7744L37.0215 25.0541L38.8554 22.2294L37.914 21.6184L36.7528 23.407Z" fill="white"/>
<path fill-rule="evenodd" clip-rule="evenodd" d="M36.7528 23.407L34.8227 22.1537L35.7457 20.7323L34.8042 20.1209L33.8812 21.5422L32.0449 20.3498L33.2064 18.5612L32.265 17.9497L30.4307 20.7744L37.0215 25.0541L38.8554 22.2294L37.914 21.6184L36.7528 23.407Z" stroke="white" stroke-width="0.8019"/>
<path fill-rule="evenodd" clip-rule="evenodd" d="M36.0072 14.249L35.0653 13.6376L32.9868 16.8388L33.9282 17.4502L34.6315 16.3676L40.2805 20.0359L40.9529 19.0003L35.3039 15.332L36.0072 14.249Z" fill="white"/>
<path fill-rule="evenodd" clip-rule="evenodd" d="M36.0072 14.249L35.0653 13.6376L32.9868 16.8388L33.9282 17.4502L34.6315 16.3676L40.2805 20.0359L40.9529 19.0003L35.3039 15.332L36.0072 14.249Z" stroke="white" stroke-width="0.8019"/>
<path fill-rule="evenodd" clip-rule="evenodd" d="M42.7713 12.738C40.8884 11.5151 39.3195 13.3747 37.9635 12.4942C37.4924 12.1883 37.4358 11.884 37.6503 11.5544C37.8644 11.2248 38.1652 11.1526 38.6363 11.4585L38.9089 11.6354L39.5448 10.6566L39.3379 10.5223C38.2834 9.83711 37.3444 9.96381 36.6897 10.971C36.0357 11.9786 36.3019 12.8879 37.3568 13.5728C39.2397 14.7957 40.8086 12.936 42.1642 13.8165C42.6349 14.1221 42.6702 14.4396 42.4565 14.7688C42.2428 15.0988 41.9381 15.1954 41.4674 14.8899L40.9967 14.584L40.3608 15.5635L40.7657 15.8265C41.8198 16.5113 42.7649 16.375 43.4256 15.3582C44.0856 14.3418 43.8258 13.4228 42.7713 12.738Z" fill="white"/>
<path fill-rule="evenodd" clip-rule="evenodd" d="M42.7713 12.738C40.8884 11.5151 39.3195 13.3747 37.9635 12.4942C37.4924 12.1883 37.4358 11.884 37.6503 11.5544C37.8644 11.2248 38.1652 11.1526 38.6363 11.4585L38.9089 11.6354L39.5448 10.6566L39.3379 10.5223C38.2834 9.83711 37.3444 9.96381 36.6897 10.971C36.0357 11.9786 36.3019 12.8879 37.3568 13.5728C39.2397 14.7957 40.8086 12.936 42.1642 13.8165C42.6349 14.1221 42.6702 14.4396 42.4565 14.7688C42.2428 15.0988 41.9381 15.1954 41.4674 14.8899L40.9967 14.584L40.3608 15.5635L40.7657 15.8265C41.8198 16.5113 42.7649 16.375 43.4256 15.3582C44.0856 14.3418 43.8258 13.4228 42.7713 12.738Z" stroke="white" stroke-width="0.8019"/>
</svg>
