<svg width="34" height="33" viewBox="0 0 34 33" fill="none" xmlns="http://www.w3.org/2000/svg">
<g filter="url(#filter0_d_6_16857)">
<path d="M20.916 5C23.806 5.00022 26.1607 7.29791 26.0537 10.1172V18.4707C26.0536 21.29 23.6987 23.5869 20.8086 23.5869H12.2451C9.35502 23.5869 7.00011 21.29 7 18.4707V10.1172C7 7.29778 9.35533 5 12.3525 5H20.916ZM12.2451 6.6709C10.2114 6.6709 8.60571 8.34127 8.60547 10.2207V18.5752C8.60562 20.5591 10.3184 22.125 12.2451 22.125H20.8086C22.8423 22.125 24.4481 20.4547 24.4482 18.5752V10.2207C24.448 8.23689 22.7352 6.67091 20.8086 6.6709H12.2451Z" fill="white"/>
<path d="M16.6343 9.49017C19.3103 9.49029 21.5577 11.6835 21.4507 14.3984C21.4505 17.0088 19.2028 19.2011 16.5269 19.2011C13.851 19.201 11.6032 17.0087 11.603 14.3984C11.603 11.6834 13.8512 9.49017 16.6343 9.49017ZM16.6343 11.2656C14.9216 11.2656 13.4224 12.6232 13.4224 14.3984C13.4226 16.069 14.8147 17.5312 16.6343 17.5312C18.3468 17.5311 19.845 16.0689 19.8452 14.3984C19.8452 12.7277 18.3469 11.2657 16.6343 11.2656Z" fill="white"/>
<path d="M21.7717 8.13269C21.4506 8.13269 21.1295 8.23711 20.9154 8.44596C20.7013 8.6548 20.5942 8.96807 20.5942 9.28134C20.5942 9.59461 20.7013 9.90787 20.9154 10.1167C21.1295 10.3256 21.4506 10.43 21.7717 10.43C22.0928 10.43 22.414 10.3256 22.6281 10.1167C22.8421 9.90787 22.9492 9.59461 22.9492 9.28134C22.9492 8.96807 22.8421 8.6548 22.6281 8.44596C22.414 8.23711 22.0928 8.13269 21.7717 8.13269Z" fill="white"/>
</g>
<defs>
<filter id="filter0_d_6_16857" x="0" y="0" width="33.0571" height="32.5869" filterUnits="userSpaceOnUse" color-interpolation-filters="sRGB">
<feFlood flood-opacity="0" result="BackgroundImageFix"/>
<feColorMatrix in="SourceAlpha" type="matrix" values="0 0 0 0 0 0 0 0 0 0 0 0 0 0 0 0 0 0 127 0" result="hardAlpha"/>
<feOffset dy="2"/>
<feGaussianBlur stdDeviation="3.5"/>
<feColorMatrix type="matrix" values="0 0 0 0 0 0 0 0 0 0 0 0 0 0 0 0 0 0 0.241614 0"/>
<feBlend mode="normal" in2="BackgroundImageFix" result="effect1_dropShadow_6_16857"/>
<feBlend mode="normal" in="SourceGraphic" in2="effect1_dropShadow_6_16857" result="shape"/>
</filter>
</defs>
</svg>
