<svg width="201" height="67" viewBox="0 0 201 67" fill="none" xmlns="http://www.w3.org/2000/svg">
<path fill-rule="evenodd" clip-rule="evenodd" d="M111.52 47.5872C111.52 47.3444 111.52 47.1016 111.52 46.8588C111.517 39.7629 111.513 32.6669 111.51 25.571C111.51 24.582 111.512 24.5815 112.53 24.5815C113.911 24.5809 115.295 24.6191 116.674 24.5655C117.392 24.5382 117.579 24.769 117.577 25.4787C117.555 36.5794 117.561 47.6796 117.561 58.7803C117.561 61.0284 117.542 63.2771 117.58 65.5246C117.591 66.1835 117.37 66.3784 116.732 66.3625C115.234 66.3249 113.734 66.3317 112.236 66.3573C111.739 66.3659 111.476 66.2177 111.323 65.7201C109.159 58.7427 106.979 51.771 104.802 44.7982C104.638 44.2727 104.47 43.7483 104.168 43.253C104.168 44.1057 104.168 44.959 104.168 45.8117C104.172 52.3222 104.176 58.8328 104.179 65.3433C104.18 66.3477 104.177 66.3494 103.161 66.3505C101.756 66.3522 100.35 66.3271 98.9461 66.3619C98.3209 66.3773 98.098 66.2046 98.0991 65.5337C98.1219 54.1759 98.1185 42.8175 98.1208 31.4591C98.1208 29.4219 98.1373 27.3842 98.1054 25.3476C98.0968 24.7747 98.2587 24.5621 98.8498 24.5735C100.395 24.6026 101.941 24.5969 103.486 24.5667C104.004 24.5564 104.215 24.7605 104.364 25.2421C106.606 32.4646 108.868 39.6802 111.127 46.8976C111.201 47.1347 111.289 47.3678 111.372 47.6026C111.421 47.5975 111.471 47.5924 111.52 47.5872Z" fill="#E2231A"/>
<path fill-rule="evenodd" clip-rule="evenodd" d="M141.49 43.2279V44.7573C141.493 51.6879 141.49 58.6185 141.509 65.5491C141.511 66.1454 141.365 66.3853 140.725 66.3682C139.227 66.3272 137.728 66.3352 136.23 66.366C135.648 66.3779 135.455 66.1761 135.455 65.5965C135.467 52.1798 135.467 38.7637 135.455 25.347C135.454 24.7719 135.634 24.5604 136.216 24.5707C137.761 24.5975 139.307 24.5929 140.851 24.569C141.329 24.5616 141.56 24.7263 141.703 25.1897C143.448 30.8236 145.211 36.4524 146.97 42.0828C147.5 43.7808 148.029 45.4794 148.562 47.1763C148.601 47.3017 148.662 47.4203 148.873 47.5297V46.7426C148.871 39.6945 148.869 32.647 148.867 25.5996C148.866 24.5781 148.864 24.5781 149.853 24.5781C151.257 24.5781 152.663 24.6106 154.067 24.5644C154.76 24.5416 154.931 24.7981 154.93 25.4565C154.913 36.8588 154.917 48.2616 154.917 59.6645C154.917 61.6076 154.899 63.5519 154.937 65.4944C154.951 66.1801 154.706 66.3808 154.041 66.3625C152.543 66.3221 151.044 66.3375 149.546 66.362C149.068 66.3699 148.829 66.1967 148.688 65.7401C147.171 60.8438 145.639 55.9515 144.111 51.0586C143.294 48.4474 142.475 45.8374 141.657 43.2268C141.601 43.2274 141.546 43.2279 141.49 43.2279Z" fill="#E2231A"/>
<path fill-rule="evenodd" clip-rule="evenodd" d="M70.9769 18.906C70.7255 19.8699 70.5044 20.7466 70.2678 21.6192C68.4108 28.4649 66.5474 35.3089 64.7024 42.1581C64.6226 42.4545 64.6414 42.8118 64.7223 43.1111C66.731 50.5467 68.7545 57.9778 70.7723 65.4106C70.8435 65.6728 70.8834 65.9436 70.9655 66.3477C70.473 66.3477 70.0843 66.3477 69.695 66.3477C68.2671 66.3483 66.8381 66.33 65.4097 66.3597C64.8796 66.3711 64.626 66.2121 64.4778 65.6728C62.953 60.1193 61.4015 54.5732 59.8556 49.0254C59.6459 48.2724 59.4287 47.5212 59.0873 46.7904C59.0873 48.0228 59.0861 49.2551 59.0879 50.4869C59.0924 55.475 59.085 60.4636 59.1192 65.4511C59.1243 66.1642 58.9208 66.391 58.2066 66.3654C56.7799 66.3147 55.3492 66.3215 53.9219 66.362C53.2533 66.3819 53.0299 66.1625 53.0327 65.487C53.0527 60.3821 53.0396 55.2766 53.0402 50.1717C53.0419 40.1722 53.0459 30.1727 53.0493 20.1732C53.0493 19.9623 53.0664 19.7496 53.0476 19.541C52.998 18.9841 53.2528 18.8131 53.792 18.8228C55.2899 18.8508 56.7902 18.8684 58.2876 18.82C58.9642 18.7977 59.1095 19.0554 59.1078 19.671C59.0884 25.6657 59.0936 31.6609 59.0913 37.6562C59.0913 37.8637 59.0913 38.0706 59.24 38.3145C59.3461 37.9537 59.4572 37.5935 59.5581 37.231C61.1974 31.3452 62.8436 25.4605 64.4618 19.5684C64.614 19.0138 64.8483 18.8143 65.424 18.8268C67.0154 18.8604 68.6086 18.8325 70.2011 18.8354C70.4246 18.8359 70.648 18.8747 70.9769 18.906Z" fill="#E2231A"/>
<path fill-rule="evenodd" clip-rule="evenodd" d="M86.5964 45.4748C86.5964 42.5724 86.5964 39.6705 86.5964 36.7681C86.5964 35.4343 86.6152 34.0993 86.589 32.7661C86.561 31.3656 85.9209 30.4753 84.7735 30.1538C82.3453 29.4738 80.7322 30.6799 80.7208 33.1845C80.7202 33.2552 80.7214 33.3253 80.7214 33.3954C80.7237 39.4807 80.7271 45.566 80.7288 51.6508C80.7288 53.7809 80.7123 55.911 80.7276 58.0405C80.7362 59.1885 81.0873 60.1768 82.2518 60.6522C84.6356 61.6252 86.5947 60.3165 86.5952 57.7623C86.5964 53.6663 86.5952 49.5708 86.5964 45.4748ZM74.6896 45.4743C74.6891 41.2819 74.6429 37.089 74.7164 32.8978C74.7398 31.5811 74.9473 30.2302 75.3132 28.9653C76.0223 26.5143 77.7785 25.0415 80.2181 24.4042C82.4565 23.8188 84.7222 23.8125 86.9646 24.366C90.0466 25.1264 91.7925 27.175 92.3802 30.2416C92.5295 31.0202 92.619 31.8222 92.6207 32.6139C92.6384 41.1388 92.6583 49.6643 92.6047 58.1887C92.5968 59.4786 92.3511 60.8067 91.9766 62.0453C91.2635 64.404 89.5501 65.8358 87.204 66.4788C84.9 67.1097 82.5659 67.1172 80.2551 66.5181C77.2734 65.7452 75.5543 63.7513 74.9638 60.7708C74.8014 59.9488 74.7079 59.0995 74.7022 58.2616C74.6765 53.9992 74.6908 49.7367 74.6896 45.4743Z" fill="#E2231A"/>
<path fill-rule="evenodd" clip-rule="evenodd" d="M6.04259 30.6885V31.6113C6.04259 40.8823 6.04316 50.1528 6.04373 59.4239C6.04373 59.5641 5.99471 59.7374 6.05798 59.8383C6.17027 60.0155 6.34184 60.2658 6.50657 60.2806C7.11077 60.3336 7.72238 60.304 8.33114 60.304C11.1526 60.3028 11.9324 59.5299 11.9324 56.7283C11.9341 49.12 11.9353 41.511 11.9307 33.9027C11.9307 33.5065 11.9011 33.1053 11.8355 32.7154C11.6406 31.5657 10.9583 30.8099 9.80231 30.7113C8.59961 30.6087 7.38095 30.6885 6.04259 30.6885ZM0.0142709 45.4389C0.0142709 38.8132 0.0137009 32.1876 0.0142709 25.5619C0.0148409 24.5809 0.0165508 24.5803 0.966741 24.5803C3.72953 24.5803 6.4946 24.5074 9.2534 24.6123C10.6146 24.6636 12.0225 24.871 13.3055 25.3105C15.801 26.1649 17.1616 28.1149 17.6598 30.6491C17.857 31.6518 17.9379 32.6926 17.9408 33.7163C17.9624 41.5595 17.967 49.4027 17.9334 57.2453C17.9282 58.4047 17.8023 59.5903 17.5372 60.7172C16.8675 63.5609 15.0081 65.2971 12.1872 65.9675C11.2832 66.1824 10.3381 66.3066 9.40958 66.3232C6.55388 66.3733 3.69704 66.3374 0.841341 66.3687C0.205221 66.3756 -0.00168913 66.1829 2.08664e-05 65.5269C0.0228209 58.8311 0.0137009 52.1347 0.0142709 45.4389Z" fill="#E2231A"/>
<path fill-rule="evenodd" clip-rule="evenodd" d="M200.63 66.3527H198.52C197.373 66.3527 196.225 66.3237 195.078 66.3653C194.508 66.3858 194.256 66.1852 194.086 65.6408C192.461 60.4356 190.81 55.2383 189.165 50.0393C189.081 49.7743 188.987 49.5127 188.779 49.247C188.762 49.4346 188.727 49.6215 188.728 49.8091C188.731 55.0303 188.729 60.2515 188.755 65.4727C188.758 66.1276 188.585 66.3886 187.884 66.3658C186.411 66.318 184.935 66.3362 183.46 66.3636C182.893 66.3744 182.675 66.1937 182.676 65.6003C182.689 52.1848 182.692 38.7682 182.678 25.3526C182.677 24.7091 182.919 24.5586 183.506 24.5706C184.98 24.6014 186.456 24.6128 187.93 24.566C188.611 24.5449 188.751 24.8157 188.748 25.4302C188.726 30.604 188.731 35.7785 188.727 40.953C188.727 41.1764 188.727 41.3993 188.881 41.6552C189.017 41.2722 189.164 40.8925 189.287 40.5049C190.896 35.4171 192.508 30.3299 194.098 25.2358C194.248 24.7541 194.466 24.5586 194.983 24.5677C196.621 24.5974 198.261 24.5774 199.899 24.5831C200.101 24.5837 200.302 24.623 200.591 24.6532C200.517 24.9656 200.473 25.2101 200.401 25.4461C198.412 31.8877 196.414 38.3258 194.446 44.7731C194.32 45.1864 194.315 45.7045 194.441 46.1177C196.366 52.4305 198.322 58.7341 200.269 65.0412C200.383 65.4139 200.476 65.7936 200.63 66.3527Z" fill="#E2231A"/>
<path fill-rule="evenodd" clip-rule="evenodd" d="M160.844 45.4548C160.844 41.2408 160.808 37.0256 160.866 32.8127C160.882 31.6323 161.058 30.4261 161.36 29.2844C161.984 26.9246 163.502 25.3064 165.853 24.5734C168.543 23.7343 171.257 23.7383 173.933 24.6241C176.333 25.4176 177.826 27.1418 178.364 29.5637C178.68 30.987 178.667 32.4833 178.796 33.9476C178.83 34.3301 178.641 34.4999 178.256 34.4982C176.617 34.4925 174.979 34.4897 173.34 34.4988C172.921 34.5011 172.761 34.3238 172.755 33.9094C172.746 33.2796 172.753 32.6395 172.645 32.0227C172.461 30.9739 171.811 30.2802 170.745 30.1297C170.109 30.0397 169.434 30.0437 168.801 30.152C167.805 30.323 167.195 30.9859 167.006 31.9817C166.924 32.4149 166.899 32.8646 166.899 33.3069C166.893 41.4773 166.893 49.6477 166.895 57.8186C166.895 60.3648 169.03 61.6946 171.351 60.6042C172.377 60.1214 172.695 59.2203 172.753 58.1908C172.855 56.4096 172.842 56.4056 174.669 56.3999C175.817 56.3965 176.964 56.4056 178.111 56.4073C178.454 56.4079 178.783 56.4147 178.796 56.8924C178.852 58.8007 178.75 60.6886 178.005 62.4801C177.202 64.4118 175.787 65.7126 173.803 66.3407C171.307 67.1313 168.772 67.1564 166.254 66.4684C163.267 65.6527 161.638 63.5762 161.093 60.6082C160.921 59.6706 160.861 58.7016 160.855 57.7457C160.83 53.6491 160.844 49.5519 160.844 45.4548Z" fill="#E2231A"/>
<path fill-rule="evenodd" clip-rule="evenodd" d="M22.7801 45.4478C22.7801 38.7748 22.7881 32.1018 22.7676 25.4294C22.7659 24.8075 22.9095 24.5653 23.5759 24.5687C28.0481 24.5921 32.5197 24.5887 36.9919 24.5681C37.5893 24.5653 37.7586 24.7842 37.7483 25.3479C37.7215 26.8692 37.717 28.3923 37.7489 29.913C37.7609 30.4847 37.5454 30.6181 37.0102 30.6124C34.529 30.5868 32.0466 30.6113 29.5648 30.5868C29.0148 30.5811 28.7805 30.6991 28.7857 31.3141C28.813 34.7791 28.8142 38.2447 28.7885 41.7098C28.7834 42.3305 29.0285 42.4445 29.5757 42.4376C31.5422 42.4126 33.5092 42.4462 35.4757 42.4177C36.0919 42.4086 36.288 42.6149 36.272 43.2305C36.2333 44.7279 36.2361 46.2276 36.2715 47.7255C36.2851 48.3206 36.0674 48.4882 35.498 48.4808C33.532 48.4534 31.565 48.4865 29.5985 48.4563C29.0011 48.4472 28.7765 48.613 28.7817 49.2457C28.809 52.664 28.8113 56.0823 28.7845 59.5006C28.7794 60.1498 28.984 60.3305 29.6236 60.3208C32.0814 60.2843 34.5404 60.3197 36.9988 60.2895C37.5899 60.2821 37.7654 60.4787 37.7535 61.0538C37.7215 62.5752 37.729 64.0976 37.7518 65.6195C37.7603 66.1536 37.5916 66.3651 37.029 66.3628C32.5334 66.3469 28.0378 66.344 23.5428 66.3674C22.8987 66.3708 22.7676 66.1234 22.7687 65.5369C22.7858 58.8405 22.7801 52.1442 22.7801 45.4478Z" fill="#E2231A"/>
<path fill-rule="evenodd" clip-rule="evenodd" d="M123.52 45.4361C123.52 38.7409 123.525 32.0457 123.509 25.3505C123.508 24.7873 123.647 24.5525 124.251 24.5673C125.701 24.6026 127.153 24.577 128.604 24.5827C129.538 24.5867 129.538 24.5924 129.538 25.5112C129.538 38.6206 129.54 51.7306 129.534 64.8401C129.534 66.5193 129.806 66.3443 127.99 66.3517C126.773 66.3568 125.555 66.3232 124.339 66.3654C123.69 66.3882 123.506 66.1693 123.508 65.5218C123.529 58.8271 123.521 52.1313 123.52 45.4361Z" fill="#E2231A"/>
<path d="M141.534 9.74855V0H143.804L147.202 9.01045H147.383V0H148.539V9.74855H146.269L142.885 0.724179H142.69V9.74855H141.534Z" fill="#E2231A"/>
<path d="M124.687 9.74855V0H130.689V1.05841H125.856V4.31722H130.299V5.37563H125.856V8.69014H130.758V9.74855H124.687Z" fill="#E2231A"/>
<path d="M106.901 9.74855V0H110.842C111.446 0 111.975 0.10677 112.43 0.32031C112.894 0.524565 113.256 0.821664 113.516 1.21161C113.776 1.59226 113.906 2.05184 113.906 2.59033V2.74352C113.906 3.38414 113.753 3.89014 113.446 4.26151C113.14 4.63288 112.778 4.88356 112.36 5.01354V5.20851C112.694 5.2178 112.968 5.32921 113.182 5.54275C113.405 5.747 113.516 6.05803 113.516 6.47582V9.74855H112.36V6.61509C112.36 6.33656 112.281 6.12302 112.123 5.97447C111.975 5.82592 111.747 5.75165 111.441 5.75165H108.071V9.74855H106.901ZM108.071 4.69323H110.731C111.371 4.69323 111.863 4.54004 112.207 4.23366C112.56 3.91799 112.736 3.48163 112.736 2.92457V2.82708C112.736 2.27002 112.564 1.8383 112.221 1.53192C111.877 1.21625 111.381 1.05841 110.731 1.05841H108.071V4.69323Z" fill="#E2231A"/>
<path d="M90.0537 9.74855V0H96.056V1.05841H91.2235V4.31722H95.6661V5.37563H91.2235V8.69014H96.1257V9.74855H90.0537Z" fill="#E2231A"/>
<path d="M77.6538 9.74855V0H78.8236V9.74855H77.6538Z" fill="#E2231A"/>
<path d="M58.9868 9.74855V8.70406H60.3516V1.04449H58.9868V0H63.875C64.4414 0 64.9427 0.102128 65.3791 0.306383C65.8247 0.510639 66.1682 0.798453 66.4096 1.16983C66.6603 1.53192 66.7857 1.95899 66.7857 2.45106V2.56248C66.7857 3.01741 66.6975 3.39342 66.5211 3.69052C66.3447 3.97834 66.1358 4.2058 65.8944 4.37292C65.653 4.53076 65.4162 4.64681 65.1841 4.72108V4.91606C65.4162 4.97176 65.6576 5.08317 65.9083 5.25029C66.159 5.40812 66.3679 5.63559 66.535 5.93269C66.7114 6.22979 66.7996 6.6058 66.7996 7.06074V7.2C66.7996 7.72921 66.6696 8.18878 66.4096 8.57872C66.159 8.95938 65.8108 9.25184 65.3652 9.45609C64.9288 9.65107 64.4274 9.74855 63.8611 9.74855H58.9868ZM61.5214 8.69014H63.7358C64.3485 8.69014 64.8174 8.54623 65.1423 8.25842C65.4673 7.9706 65.6298 7.58066 65.6298 7.08859V6.96325C65.6298 6.47118 65.4673 6.08124 65.1423 5.79343C64.8174 5.50561 64.3485 5.3617 63.7358 5.3617H61.5214V8.69014ZM61.5214 4.30329H63.7775C64.3346 4.30329 64.7802 4.16402 65.1145 3.88549C65.4487 3.59768 65.6158 3.22166 65.6158 2.75745V2.61818C65.6158 2.14468 65.4487 1.76867 65.1145 1.49014C64.7895 1.20232 64.3439 1.05841 63.7775 1.05841H61.5214V4.30329Z" fill="#E2231A"/>
</svg>
